<svg xmlns="http://www.w3.org/2000/svg" xmlns:xlink="http://www.w3.org/1999/xlink" width="500" zoomAndPan="magnify" viewBox="0 0 375 374.999991" height="500" preserveAspectRatio="xMidYMid meet" version="1.0"><path fill="#b2e0ff" d="M 20.9375 291.511719 C 30.765625 315.53125 53.777344 326.878906 68.480469 334.128906 C 126.449219 362.710938 214.550781 359.277344 278.015625 307 C 292.867188 294.765625 366.074219 230.679688 349.121094 143.992188 C 334.132812 67.363281 258.441406 22.964844 194.667969 17.109375 C 141.835938 12.257812 72.816406 31.664062 48.390625 78.4375 C 33.027344 107.851562 51.445312 117.171875 38.84375 183.804688 C 27.9375 241.476562 8.914062 262.132812 20.9375 291.511719 " fill-opacity="1" fill-rule="nonzero"/><path fill="#ffffff" d="M 300.457031 149.691406 C 300.457031 151.28125 299.164062 152.570312 297.578125 152.570312 C 295.988281 152.570312 294.699219 151.28125 294.699219 149.691406 C 294.699219 148.101562 295.988281 146.816406 297.578125 146.816406 C 299.164062 146.816406 300.457031 148.101562 300.457031 149.691406 " fill-opacity="1" fill-rule="nonzero"/><path fill="#e67e22" d="M 53.75 37.511719 L 326.34375 30.015625 C 333.015625 29.832031 338.453125 35.046875 338.453125 41.667969 L 338.453125 300.234375 C 338.453125 306.855469 333.015625 311.894531 326.34375 311.492188 L 53.75 295.113281 C 48.179688 294.78125 43.679688 289.632812 43.679688 283.621094 L 43.679688 48.679688 C 43.679688 42.667969 48.179688 37.667969 53.75 37.511719 " fill-opacity="1" fill-rule="nonzero"/><path fill="#12354d" d="M 53.75 37.515625 L 53.765625 38.121094 C 48.539062 38.265625 44.285156 43.003906 44.285156 48.683594 L 44.285156 283.621094 C 44.285156 289.308594 48.546875 294.195312 53.785156 294.507812 L 326.375 310.886719 C 329.472656 311.074219 332.363281 310.050781 334.535156 308.003906 C 336.667969 305.996094 337.839844 303.238281 337.839844 300.234375 L 337.839844 41.671875 C 337.839844 38.660156 336.660156 35.855469 334.519531 33.777344 C 332.34375 31.660156 329.449219 30.546875 326.355469 30.625 L 53.765625 38.121094 Z M 327.089844 312.125 C 326.828125 312.125 326.566406 312.117188 326.304688 312.101562 L 53.710938 295.722656 C 47.84375 295.371094 43.070312 289.941406 43.070312 283.621094 L 43.070312 48.683594 C 43.070312 42.351562 47.851562 37.070312 53.730469 36.90625 L 326.324219 29.40625 C 329.738281 29.304688 332.960938 30.554688 335.371094 32.902344 C 337.75 35.21875 339.058594 38.332031 339.058594 41.671875 L 339.058594 300.234375 C 339.058594 303.574219 337.75 306.648438 335.367188 308.890625 C 333.136719 310.992188 330.222656 312.125 327.089844 312.125 " fill-opacity="1" fill-rule="nonzero"/><path fill="#ffffff" d="M 47.886719 37.515625 L 320.476562 30.019531 C 327.152344 29.835938 332.585938 35.050781 332.585938 41.671875 L 332.585938 300.234375 C 332.585938 306.855469 327.152344 311.894531 320.476562 311.492188 L 47.886719 295.117188 C 42.316406 294.78125 37.816406 289.636719 37.816406 283.621094 L 37.816406 48.683594 C 37.816406 42.667969 42.316406 37.667969 47.886719 37.515625 " fill-opacity="1" fill-rule="nonzero"/><path fill="#12354d" d="M 47.886719 37.511719 L 47.902344 38.121094 C 42.675781 38.265625 38.425781 43.003906 38.425781 48.679688 L 38.425781 283.621094 C 38.425781 289.308594 42.683594 294.191406 47.921875 294.507812 L 320.519531 310.886719 C 323.609375 311.074219 326.503906 310.050781 328.675781 308 C 330.808594 305.996094 331.980469 303.238281 331.980469 300.234375 L 331.980469 41.667969 C 331.980469 38.660156 330.800781 35.855469 328.660156 33.773438 C 326.484375 31.660156 323.585938 30.542969 320.496094 30.625 L 47.902344 38.121094 Z M 321.230469 312.125 C 320.96875 312.125 320.707031 312.117188 320.445312 312.101562 L 47.847656 295.722656 C 41.980469 295.371094 37.207031 289.941406 37.207031 283.621094 L 37.207031 48.679688 C 37.207031 42.347656 41.992188 37.066406 47.871094 36.90625 L 320.464844 29.40625 C 323.882812 29.304688 327.097656 30.554688 329.507812 32.898438 C 331.886719 35.214844 333.199219 38.328125 333.199219 41.667969 L 333.199219 300.234375 C 333.199219 303.574219 331.886719 306.648438 329.507812 308.890625 C 327.277344 310.992188 324.363281 312.125 321.230469 312.125 " fill-opacity="1" fill-rule="nonzero"/><path fill="#73c7ff" d="M 51.296875 82.070312 C 50.960938 82.070312 50.691406 81.804688 50.6875 81.46875 C 50.683594 81.132812 50.953125 80.859375 51.289062 80.851562 L 316.410156 77.527344 C 316.414062 77.527344 316.414062 77.527344 316.417969 77.527344 C 316.75 77.527344 317.023438 77.796875 317.027344 78.128906 C 317.03125 78.464844 316.761719 78.738281 316.425781 78.742188 L 51.304688 82.070312 C 51.300781 82.070312 51.296875 82.070312 51.296875 82.070312 " fill-opacity="1" fill-rule="nonzero"/><path fill="#73c7ff" d="M 179.515625 282.960938 C 179.179688 282.960938 178.90625 282.6875 178.90625 282.351562 L 178.90625 47.761719 C 178.90625 47.425781 179.179688 47.152344 179.515625 47.152344 C 179.851562 47.152344 180.121094 47.425781 180.121094 47.761719 L 180.121094 282.351562 C 180.121094 282.6875 179.851562 282.960938 179.515625 282.960938 " fill-opacity="1" fill-rule="nonzero"/><path fill="#73c7ff" d="M 114.039062 279.46875 C 113.703125 279.46875 113.433594 279.191406 113.433594 278.859375 L 113.433594 49.265625 C 113.433594 48.933594 113.703125 48.660156 114.039062 48.660156 C 114.375 48.660156 114.648438 48.933594 114.648438 49.265625 L 114.648438 278.859375 C 114.648438 279.191406 114.375 279.46875 114.039062 279.46875 " fill-opacity="1" fill-rule="nonzero"/><path fill="#73c7ff" d="M 247.90625 286.609375 C 247.570312 286.609375 247.296875 286.335938 247.296875 286.003906 L 247.296875 46.191406 C 247.296875 45.855469 247.570312 45.582031 247.90625 45.582031 C 248.238281 45.582031 248.515625 45.855469 248.515625 46.191406 L 248.515625 286.003906 C 248.515625 286.335938 248.238281 286.609375 247.90625 286.609375 " fill-opacity="1" fill-rule="nonzero"/><path fill="#e67e22" d="M 188.074219 71.863281 L 239.039062 71.09375 L 239.039062 52.339844 L 188.074219 53.417969 L 188.074219 71.863281 " fill-opacity="1" fill-rule="nonzero"/><path fill="#e67e22" d="M 121.847656 72.863281 L 170.628906 72.128906 L 170.628906 53.785156 L 121.847656 54.8125 L 121.847656 72.863281 " fill-opacity="1" fill-rule="nonzero"/><path fill="#e67e22" d="M 257.28125 70.820312 L 310.578125 70.011719 L 310.578125 50.832031 L 257.28125 51.953125 L 257.28125 70.820312 " fill-opacity="1" fill-rule="nonzero"/><path fill="#e67e22" d="M 58.40625 73.824219 L 105.140625 73.117188 L 105.140625 55.164062 L 58.40625 56.152344 L 58.40625 73.824219 " fill-opacity="1" fill-rule="nonzero"/><path fill="#73c7ff" d="M 188.078125 204.488281 L 239.042969 205.914062 L 239.042969 95.503906 L 188.078125 95.878906 L 188.078125 204.488281 " fill-opacity="1" fill-rule="nonzero"/><path fill="#73c7ff" d="M 264.503906 143.976562 L 316.421875 144.394531 L 316.421875 99.402344 L 264.503906 99.707031 L 264.503906 143.976562 " fill-opacity="1" fill-rule="nonzero"/><path fill="#73c7ff" d="M 121.664062 177.128906 L 169.007812 178.449219 L 169.007812 135.5 L 121.664062 134.84375 L 121.664062 177.128906 " fill-opacity="1" fill-rule="nonzero"/><path fill="#b2e0ff" d="M 122.476562 126.632812 L 169.820312 127.757812 L 169.820312 91.195312 L 122.476562 90.636719 L 122.476562 126.632812 " fill-opacity="1" fill-rule="nonzero"/><path fill="#b2e0ff" d="M 189.796875 254.992188 L 237.136719 256.3125 L 237.136719 213.363281 L 189.796875 212.707031 L 189.796875 254.992188 " fill-opacity="1" fill-rule="nonzero"/><path fill="#b2e0ff" d="M 263.808594 200.84375 L 315.003906 202.273438 L 315.003906 155.832031 L 263.808594 155.117188 L 263.808594 200.84375 " fill-opacity="1" fill-rule="nonzero"/><path fill="#b2e0ff" d="M 58.402344 132.515625 L 105.742188 133.839844 L 105.742188 90.890625 L 58.402344 90.234375 L 58.402344 132.515625 " fill-opacity="1" fill-rule="nonzero"/><path fill="#73c7ff" d="M 56.378906 263.164062 L 103.113281 265.457031 L 103.113281 198.484375 L 56.378906 197.234375 L 56.378906 263.164062 " fill-opacity="1" fill-rule="nonzero"/><path fill="#b2e0ff" d="M 123.699219 265.597656 L 170.433594 267.886719 L 170.433594 200.917969 L 123.699219 199.667969 L 123.699219 265.597656 " fill-opacity="1" fill-rule="nonzero"/><path fill="#b2e0ff" d="M 266.042969 277.761719 L 312.777344 280.054688 L 312.777344 213.082031 L 266.042969 211.835938 L 266.042969 277.761719 " fill-opacity="1" fill-rule="nonzero"/><path fill="#ffffff" d="M 244.316406 296.121094 L 179.625 292.816406 C 177.765625 292.71875 176.257812 291.164062 176.257812 289.335938 L 176.257812 228.203125 C 176.257812 226.375 177.765625 224.96875 179.625 225.0625 L 244.316406 228.371094 C 246.175781 228.464844 247.683594 230.023438 247.683594 231.851562 L 247.683594 292.984375 C 247.683594 294.8125 246.175781 296.214844 244.316406 296.121094 " fill-opacity="1" fill-rule="nonzero"/><path fill="#73c7ff" d="M 247.683594 240.277344 L 176.257812 236.625 L 176.257812 228.203125 C 176.257812 226.375 177.765625 224.96875 179.625 225.0625 L 244.316406 228.371094 C 246.175781 228.464844 247.683594 230.023438 247.683594 231.851562 L 247.683594 240.277344 " fill-opacity="1" fill-rule="nonzero"/><path fill="#12354d" d="M 179.445312 225.667969 C 178.757812 225.667969 178.121094 225.914062 177.640625 226.375 C 177.140625 226.847656 176.867188 227.496094 176.867188 228.199219 L 176.867188 289.335938 C 176.867188 290.839844 178.117188 292.132812 179.65625 292.210938 L 244.347656 295.515625 C 245.085938 295.550781 245.785156 295.304688 246.300781 294.8125 C 246.800781 294.339844 247.074219 293.6875 247.074219 292.984375 L 247.074219 231.851562 C 247.074219 230.34375 245.824219 229.054688 244.285156 228.976562 L 179.59375 225.671875 C 179.542969 225.667969 179.496094 225.667969 179.445312 225.667969 Z M 244.496094 296.734375 C 244.425781 296.734375 244.355469 296.734375 244.285156 296.730469 L 179.59375 293.421875 C 177.417969 293.3125 175.648438 291.476562 175.648438 289.335938 L 175.648438 228.199219 C 175.648438 227.160156 176.058594 226.199219 176.800781 225.492188 C 177.5625 224.769531 178.578125 224.402344 179.65625 224.457031 L 244.347656 227.761719 C 246.523438 227.875 248.292969 229.707031 248.292969 231.851562 L 248.292969 292.984375 C 248.292969 294.023438 247.882812 294.988281 247.140625 295.695312 C 246.425781 296.367188 245.496094 296.734375 244.496094 296.734375 " fill-opacity="1" fill-rule="nonzero"/><path fill="#b2e0ff" d="M 193.320312 271.023438 L 185.417969 270.621094 C 184.398438 270.566406 183.570312 269.714844 183.570312 268.714844 L 183.570312 260.875 C 183.570312 259.875 184.398438 259.105469 185.417969 259.160156 L 193.320312 259.5625 C 194.339844 259.613281 195.164062 260.46875 195.164062 261.46875 L 195.164062 269.304688 C 195.164062 270.308594 194.339844 271.078125 193.320312 271.023438 " fill-opacity="1" fill-rule="nonzero"/><path fill="#b2e0ff" d="M 208.386719 271.792969 L 200.484375 271.390625 C 199.46875 271.339844 198.640625 270.484375 198.640625 269.484375 L 198.640625 261.648438 C 198.640625 260.648438 199.46875 259.875 200.484375 259.929688 L 208.386719 260.332031 C 209.40625 260.382812 210.230469 261.238281 210.230469 262.238281 L 210.230469 270.078125 C 210.230469 271.078125 209.40625 271.84375 208.386719 271.792969 " fill-opacity="1" fill-rule="nonzero"/><path fill="#b2e0ff" d="M 223.457031 272.5625 L 215.554688 272.160156 C 214.535156 272.109375 213.710938 271.253906 213.710938 270.253906 L 213.710938 262.417969 C 213.710938 261.414062 214.535156 260.648438 215.554688 260.699219 L 223.457031 261.101562 C 224.472656 261.152344 225.300781 262.007812 225.300781 263.007812 L 225.300781 270.84375 C 225.300781 271.847656 224.472656 272.617188 223.457031 272.5625 " fill-opacity="1" fill-rule="nonzero"/><path fill="#73c7ff" d="M 238.527344 273.332031 L 230.621094 272.929688 C 229.601562 272.878906 228.777344 272.023438 228.777344 271.023438 L 228.777344 263.1875 C 228.777344 262.1875 229.601562 261.417969 230.621094 261.46875 L 238.527344 261.871094 C 239.542969 261.925781 240.371094 262.777344 240.371094 263.78125 L 240.371094 271.617188 C 240.371094 272.617188 239.542969 273.386719 238.527344 273.332031 " fill-opacity="1" fill-rule="nonzero"/><path fill="#b2e0ff" d="M 193.320312 285.871094 L 185.417969 285.464844 C 184.398438 285.414062 183.570312 284.558594 183.570312 283.558594 L 183.570312 275.722656 C 183.570312 274.722656 184.398438 273.953125 185.417969 274.003906 L 193.320312 274.410156 C 194.339844 274.460938 195.164062 275.3125 195.164062 276.316406 L 195.164062 284.152344 C 195.164062 285.152344 194.339844 285.921875 193.320312 285.871094 " fill-opacity="1" fill-rule="nonzero"/><path fill="#b2e0ff" d="M 208.386719 286.640625 L 200.484375 286.238281 C 199.46875 286.183594 198.640625 285.332031 198.640625 284.328125 L 198.640625 276.492188 C 198.640625 275.492188 199.46875 274.722656 200.484375 274.773438 L 208.386719 275.179688 C 209.40625 275.230469 210.230469 276.085938 210.230469 277.085938 L 210.230469 284.921875 C 210.230469 285.921875 209.40625 286.691406 208.386719 286.640625 " fill-opacity="1" fill-rule="nonzero"/><path fill="#b2e0ff" d="M 223.457031 287.410156 L 215.554688 287.007812 C 214.535156 286.953125 213.710938 286.101562 213.710938 285.097656 L 213.710938 277.261719 C 213.710938 276.261719 214.535156 275.492188 215.554688 275.546875 L 223.457031 275.949219 C 224.472656 276 225.300781 276.855469 225.300781 277.855469 L 225.300781 285.691406 C 225.300781 286.691406 224.472656 287.460938 223.457031 287.410156 " fill-opacity="1" fill-rule="nonzero"/><path fill="#b2e0ff" d="M 193.320312 256.128906 L 185.417969 255.726562 C 184.398438 255.675781 183.570312 254.820312 183.570312 253.820312 L 183.570312 245.984375 C 183.570312 244.984375 184.398438 244.210938 185.417969 244.265625 L 193.320312 244.667969 C 194.339844 244.722656 195.164062 245.574219 195.164062 246.574219 L 195.164062 254.414062 C 195.164062 255.414062 194.339844 256.183594 193.320312 256.128906 " fill-opacity="1" fill-rule="nonzero"/><path fill="#b2e0ff" d="M 208.386719 256.902344 L 200.484375 256.496094 C 199.46875 256.445312 198.640625 255.589844 198.640625 254.589844 L 198.640625 246.753906 C 198.640625 245.753906 199.46875 244.984375 200.484375 245.035156 L 208.386719 245.4375 C 209.40625 245.488281 210.230469 246.34375 210.230469 247.34375 L 210.230469 255.179688 C 210.230469 256.183594 209.40625 256.953125 208.386719 256.902344 " fill-opacity="1" fill-rule="nonzero"/><path fill="#b2e0ff" d="M 223.457031 257.671875 L 215.554688 257.265625 C 214.535156 257.214844 213.710938 256.359375 213.710938 255.359375 L 213.710938 247.523438 C 213.710938 246.519531 214.535156 245.753906 215.554688 245.804688 L 223.457031 246.207031 C 224.472656 246.261719 225.300781 247.113281 225.300781 248.117188 L 225.300781 255.953125 C 225.300781 256.953125 224.472656 257.722656 223.457031 257.671875 " fill-opacity="1" fill-rule="nonzero"/><path fill="#73c7ff" d="M 238.527344 258.441406 L 230.621094 258.035156 C 229.601562 257.984375 228.777344 257.128906 228.777344 256.128906 L 228.777344 248.292969 C 228.777344 247.292969 229.601562 246.523438 230.621094 246.574219 L 238.527344 246.980469 C 239.542969 247.03125 240.371094 247.882812 240.371094 248.886719 L 240.371094 256.722656 C 240.371094 257.722656 239.542969 258.492188 238.527344 258.441406 " fill-opacity="1" fill-rule="nonzero"/><path fill="#12354d" d="M 186.042969 232.316406 C 186.03125 232.316406 186.019531 232.316406 186.011719 232.316406 C 182.460938 232.125 179.570312 229.097656 179.566406 225.570312 C 179.566406 223.851562 180.238281 222.273438 181.453125 221.117188 C 182.6875 219.949219 184.328125 219.363281 186.066406 219.453125 C 186.199219 219.460938 186.332031 219.472656 186.460938 219.484375 C 186.796875 219.523438 187.035156 219.824219 186.996094 220.160156 C 186.960938 220.492188 186.65625 220.734375 186.324219 220.695312 C 186.21875 220.683594 186.109375 220.675781 186.003906 220.667969 C 184.605469 220.59375 183.277344 221.066406 182.292969 222 C 181.320312 222.921875 180.785156 224.191406 180.785156 225.570312 C 180.789062 228.464844 183.160156 230.945312 186.078125 231.101562 C 186.410156 231.117188 186.667969 231.40625 186.648438 231.742188 C 186.632812 232.0625 186.363281 232.316406 186.042969 232.316406 " fill-opacity="1" fill-rule="nonzero"/><path fill="#12354d" d="M 194.917969 232.792969 C 194.90625 232.792969 194.894531 232.792969 194.882812 232.792969 C 191.332031 232.601562 188.445312 229.574219 188.441406 226.046875 C 188.441406 224.328125 189.113281 222.75 190.328125 221.59375 C 191.558594 220.425781 193.207031 219.839844 194.941406 219.929688 C 195.074219 219.9375 195.203125 219.949219 195.335938 219.960938 C 195.667969 220 195.910156 220.300781 195.871094 220.636719 C 195.832031 220.96875 195.535156 221.210938 195.199219 221.171875 C 195.09375 221.160156 194.984375 221.148438 194.878906 221.144531 C 193.476562 221.074219 192.152344 221.542969 191.167969 222.476562 C 190.195312 223.398438 189.660156 224.667969 189.660156 226.046875 C 189.660156 228.941406 192.035156 231.421875 194.949219 231.578125 C 195.285156 231.59375 195.542969 231.882812 195.523438 232.214844 C 195.507812 232.542969 195.238281 232.792969 194.917969 232.792969 " fill-opacity="1" fill-rule="nonzero"/><path fill="#12354d" d="M 203.789062 233.269531 C 203.78125 233.269531 203.769531 233.269531 203.757812 233.269531 C 200.207031 233.078125 197.320312 230.050781 197.316406 226.523438 C 197.316406 224.808594 197.984375 223.226562 199.203125 222.070312 C 200.433594 220.902344 202.078125 220.3125 203.816406 220.40625 C 203.949219 220.414062 204.082031 220.425781 204.210938 220.4375 C 204.542969 220.476562 204.785156 220.777344 204.746094 221.109375 C 204.707031 221.445312 204.40625 221.683594 204.074219 221.644531 C 203.96875 221.636719 203.859375 221.625 203.75 221.621094 C 202.351562 221.542969 201.027344 222.019531 200.039062 222.953125 C 199.066406 223.875 198.53125 225.144531 198.53125 226.523438 C 198.535156 229.414062 200.910156 231.898438 203.824219 232.054688 C 204.15625 232.070312 204.414062 232.359375 204.398438 232.691406 C 204.378906 233.019531 204.113281 233.269531 203.789062 233.269531 " fill-opacity="1" fill-rule="nonzero"/><path fill="#12354d" d="M 212.664062 233.746094 C 212.652344 233.746094 212.644531 233.746094 212.632812 233.746094 C 209.082031 233.554688 206.191406 230.527344 206.191406 227 C 206.191406 225.285156 206.859375 223.703125 208.078125 222.546875 C 209.308594 221.378906 210.953125 220.792969 212.6875 220.882812 C 212.824219 220.890625 212.953125 220.898438 213.082031 220.914062 C 213.417969 220.953125 213.65625 221.253906 213.617188 221.585938 C 213.582031 221.921875 213.277344 222.164062 212.949219 222.121094 C 212.839844 222.113281 212.730469 222.101562 212.621094 222.097656 C 211.21875 222.019531 209.902344 222.496094 208.914062 223.429688 C 207.941406 224.355469 207.40625 225.621094 207.40625 226.996094 C 207.410156 229.890625 209.78125 232.375 212.699219 232.53125 C 213.03125 232.546875 213.289062 232.835938 213.273438 233.171875 C 213.253906 233.496094 212.988281 233.746094 212.664062 233.746094 " fill-opacity="1" fill-rule="nonzero"/><path fill="#12354d" d="M 221.539062 234.222656 C 221.527344 234.222656 221.519531 234.222656 221.507812 234.222656 C 217.957031 234.03125 215.066406 231.003906 215.066406 227.476562 C 215.0625 225.761719 215.734375 224.179688 216.953125 223.023438 C 218.183594 221.855469 219.828125 221.269531 221.5625 221.359375 C 221.695312 221.367188 221.828125 221.375 221.957031 221.390625 C 222.292969 221.429688 222.53125 221.730469 222.492188 222.0625 C 222.457031 222.398438 222.152344 222.636719 221.820312 222.601562 C 221.714844 222.589844 221.609375 222.578125 221.5 222.574219 C 220.097656 222.5 218.777344 222.972656 217.789062 223.90625 C 216.816406 224.832031 216.28125 226.097656 216.28125 227.472656 C 216.28125 230.367188 218.65625 232.851562 221.570312 233.007812 C 221.90625 233.027344 222.164062 233.3125 222.144531 233.648438 C 222.128906 233.972656 221.859375 234.222656 221.539062 234.222656 " fill-opacity="1" fill-rule="nonzero"/><path fill="#12354d" d="M 230.414062 234.699219 C 230.402344 234.699219 230.390625 234.699219 230.382812 234.699219 C 226.828125 234.507812 223.941406 231.480469 223.9375 227.953125 C 223.9375 226.238281 224.609375 224.65625 225.828125 223.5 C 227.054688 222.332031 228.703125 221.746094 230.4375 221.832031 C 230.570312 221.84375 230.699219 221.851562 230.832031 221.871094 C 231.167969 221.90625 231.40625 222.207031 231.367188 222.539062 C 231.332031 222.875 231.03125 223.117188 230.695312 223.078125 C 230.589844 223.066406 230.484375 223.054688 230.375 223.050781 C 228.972656 222.976562 227.648438 223.449219 226.664062 224.382812 C 225.691406 225.304688 225.15625 226.574219 225.15625 227.949219 C 225.15625 230.84375 227.53125 233.328125 230.445312 233.484375 C 230.78125 233.503906 231.039062 233.785156 231.019531 234.125 C 231.003906 234.449219 230.734375 234.699219 230.414062 234.699219 " fill-opacity="1" fill-rule="nonzero"/><path fill="#12354d" d="M 238.78125 235.148438 C 238.773438 235.148438 238.761719 235.148438 238.75 235.148438 C 235.199219 234.957031 232.308594 231.929688 232.308594 228.402344 C 232.304688 226.683594 232.976562 225.105469 234.195312 223.949219 C 235.425781 222.78125 237.066406 222.195312 238.808594 222.285156 C 241.054688 222.40625 243.101562 223.648438 244.285156 225.609375 C 244.460938 225.898438 244.367188 226.273438 244.078125 226.445312 C 243.792969 226.617188 243.417969 226.523438 243.246094 226.238281 C 242.269531 224.621094 240.585938 223.597656 238.742188 223.5 C 237.335938 223.425781 236.019531 223.898438 235.035156 224.832031 C 234.058594 225.753906 233.523438 227.023438 233.523438 228.402344 C 233.523438 231.296875 235.898438 233.777344 238.8125 233.933594 C 239.152344 233.949219 239.410156 234.238281 239.390625 234.574219 C 239.375 234.898438 239.105469 235.148438 238.78125 235.148438 " fill-opacity="1" fill-rule="nonzero"/><path fill="#ffffff" d="M 304.773438 323.761719 L 306.785156 337.863281 L 311.925781 337.882812 L 312.167969 324.011719 L 304.773438 323.761719 " fill-opacity="1" fill-rule="nonzero"/><path fill="#12354d" d="M 307.3125 337.253906 L 311.328125 337.269531 L 311.546875 324.601562 L 305.480469 324.390625 Z M 311.925781 338.488281 C 311.925781 338.488281 311.925781 338.488281 311.921875 338.488281 L 306.78125 338.472656 C 306.480469 338.46875 306.226562 338.246094 306.183594 337.949219 L 304.175781 323.847656 C 304.148438 323.667969 304.203125 323.488281 304.324219 323.355469 C 304.445312 323.222656 304.621094 323.148438 304.796875 323.152344 L 312.1875 323.40625 C 312.519531 323.417969 312.78125 323.691406 312.773438 324.023438 L 312.53125 337.890625 C 312.527344 338.226562 312.257812 338.488281 311.925781 338.488281 " fill-opacity="1" fill-rule="nonzero"/><path fill="#ffffff" d="M 306.613281 351.34375 C 308.628906 351.5625 311.632812 351.644531 315.644531 351.292969 C 317.082031 351.167969 318.09375 349.835938 317.859375 348.417969 C 317.238281 344.585938 315.496094 337.835938 312.757812 334.738281 L 311.40625 336.667969 L 310.601562 334.671875 C 310.46875 334.460938 307.066406 334.316406 306.992188 334.722656 L 306.785156 336.667969 L 304.851562 334.5 L 304.957031 341.617188 C 304.96875 342.402344 304.894531 343.1875 304.734375 343.957031 L 304.226562 346.417969 C 303.925781 347.898438 304.300781 349.464844 305.335938 350.566406 C 305.742188 351 306.191406 351.300781 306.613281 351.34375 " fill-opacity="1" fill-rule="nonzero"/><path fill="#12354d" d="M 305.484375 336.125 L 305.566406 341.609375 C 305.578125 342.433594 305.5 343.265625 305.332031 344.082031 L 304.824219 346.539062 C 304.550781 347.871094 304.90625 349.222656 305.777344 350.152344 C 306.105469 350.5 306.429688 350.714844 306.675781 350.742188 C 308.386719 350.921875 311.320312 351.0625 315.589844 350.6875 C 316.105469 350.640625 316.566406 350.390625 316.886719 349.980469 C 317.207031 349.566406 317.34375 349.03125 317.261719 348.515625 C 316.71875 345.195312 315.199219 339.015625 312.792969 335.75 L 311.898438 337.019531 C 311.773438 337.199219 311.554688 337.300781 311.335938 337.273438 C 311.109375 337.246094 310.921875 337.101562 310.839844 336.894531 L 310.140625 335.160156 C 309.5625 335.066406 308.152344 335.035156 307.5625 335.121094 L 307.390625 336.730469 C 307.367188 336.972656 307.199219 337.171875 306.972656 337.246094 C 306.742188 337.324219 306.492188 337.25 306.332031 337.074219 Z M 310.515625 352.140625 C 308.816406 352.140625 307.5 352.050781 306.546875 351.949219 C 306 351.890625 305.429688 351.558594 304.890625 350.984375 C 303.746094 349.765625 303.277344 348.011719 303.632812 346.292969 L 304.140625 343.832031 C 304.289062 343.105469 304.359375 342.363281 304.347656 341.625 L 304.242188 334.511719 C 304.238281 334.257812 304.394531 334.027344 304.628906 333.933594 C 304.867188 333.84375 305.136719 333.90625 305.304688 334.097656 L 306.324219 335.242188 L 306.386719 334.65625 C 306.390625 334.644531 306.390625 334.628906 306.394531 334.617188 C 306.488281 334.085938 307.066406 333.980469 307.257812 333.945312 C 307.289062 333.9375 310.667969 333.609375 311.121094 334.363281 C 311.136719 334.386719 311.152344 334.417969 311.164062 334.449219 L 311.546875 335.402344 L 312.257812 334.386719 C 312.367188 334.238281 312.535156 334.144531 312.722656 334.132812 C 312.910156 334.121094 313.089844 334.195312 313.214844 334.335938 C 316.753906 338.335938 318.296875 347.308594 318.460938 348.316406 C 318.597656 349.167969 318.378906 350.046875 317.851562 350.726562 C 317.320312 351.40625 316.554688 351.824219 315.699219 351.898438 C 313.6875 352.074219 311.964844 352.140625 310.515625 352.140625 " fill-opacity="1" fill-rule="nonzero"/><path fill="#12354d" d="M 310.289062 349.625 C 308.03125 349.625 306.632812 349.347656 306.542969 349.328125 C 306.214844 349.265625 306 348.941406 306.066406 348.613281 C 306.132812 348.285156 306.453125 348.070312 306.78125 348.136719 C 306.820312 348.144531 310.335938 348.832031 315.25 347.96875 C 315.585938 347.910156 315.898438 348.128906 315.957031 348.460938 C 316.015625 348.792969 315.796875 349.105469 315.464844 349.164062 C 313.46875 349.515625 311.707031 349.625 310.289062 349.625 " fill-opacity="1" fill-rule="nonzero"/><path fill="#12354d" d="M 313.304688 344.21875 L 308.644531 344.21875 C 308.308594 344.21875 308.035156 343.945312 308.035156 343.609375 C 308.035156 343.273438 308.308594 343 308.644531 343 L 313.304688 343 C 313.640625 343 313.914062 343.273438 313.914062 343.609375 C 313.914062 343.945312 313.640625 344.21875 313.304688 344.21875 " fill-opacity="1" fill-rule="nonzero"/><path fill="#ffffff" d="M 267.886719 325.019531 L 266.082031 341.457031 L 259.167969 342.902344 L 259.585938 323.632812 L 267.886719 325.019531 " fill-opacity="1" fill-rule="nonzero"/><path fill="#12354d" d="M 260.179688 324.347656 L 259.789062 342.152344 L 265.523438 340.949219 L 267.21875 325.523438 Z M 259.164062 343.511719 C 259.027344 343.511719 258.886719 343.460938 258.777344 343.371094 C 258.632812 343.253906 258.554688 343.074219 258.558594 342.890625 L 258.976562 323.617188 C 258.984375 323.441406 259.0625 323.273438 259.199219 323.164062 C 259.335938 323.050781 259.511719 323.003906 259.6875 323.03125 L 267.988281 324.417969 C 268.308594 324.472656 268.527344 324.765625 268.492188 325.085938 L 266.683594 341.523438 C 266.65625 341.78125 266.460938 341.996094 266.203125 342.050781 L 259.289062 343.5 C 259.25 343.507812 259.207031 343.511719 259.164062 343.511719 " fill-opacity="1" fill-rule="nonzero"/><path fill="#ffffff" d="M 269.003906 349.292969 C 269.15625 346.414062 269.160156 341.109375 267.40625 338.550781 L 261.875 340.523438 L 261.875 339.339844 C 261.875 338.960938 261.601562 338.644531 261.253906 338.625 L 258.171875 338.449219 C 257.019531 338.382812 255.875 338.621094 254.824219 339.140625 C 251.722656 340.664062 242.285156 344.574219 240.980469 348.96875 C 240.59375 350.265625 241.605469 351.566406 242.960938 351.601562 C 246.0625 351.691406 253.527344 351.789062 266.925781 351.332031 C 268.042969 351.292969 268.945312 350.40625 269.003906 349.292969 " fill-opacity="1" fill-rule="nonzero"/><path fill="#12354d" d="M 269.003906 349.292969 L 269.007812 349.292969 Z M 257.800781 339.046875 C 256.875 339.046875 255.941406 339.265625 255.089844 339.683594 C 254.714844 339.867188 254.25 340.085938 253.71875 340.335938 C 250.121094 342.023438 242.636719 345.535156 241.5625 349.144531 C 241.4375 349.558594 241.519531 350 241.78125 350.359375 C 242.058594 350.742188 242.503906 350.980469 242.976562 350.996094 C 246.222656 351.089844 253.652344 351.175781 266.90625 350.722656 C 267.710938 350.695312 268.351562 350.066406 268.398438 349.261719 C 268.632812 344.765625 268.175781 341.179688 267.144531 339.292969 L 262.078125 341.09375 C 261.890625 341.160156 261.683594 341.132812 261.523438 341.019531 C 261.363281 340.90625 261.265625 340.71875 261.265625 340.523438 L 261.265625 339.339844 C 261.265625 339.273438 261.230469 339.238281 261.21875 339.234375 L 258.136719 339.054688 C 258.023438 339.050781 257.914062 339.046875 257.800781 339.046875 Z M 249.152344 352.289062 C 246.304688 352.289062 244.273438 352.25 242.941406 352.210938 C 242.09375 352.1875 241.292969 351.761719 240.792969 351.070312 C 240.308594 350.40625 240.164062 349.574219 240.398438 348.796875 C 241.625 344.664062 249.15625 341.132812 253.199219 339.238281 C 253.726562 338.992188 254.183594 338.773438 254.554688 338.59375 C 255.695312 338.03125 256.957031 337.769531 258.207031 337.839844 L 261.289062 338.019531 C 261.957031 338.058594 262.484375 338.636719 262.484375 339.339844 L 262.484375 339.660156 L 267.203125 337.980469 C 267.460938 337.886719 267.75 337.980469 267.90625 338.207031 C 269.757812 340.90625 269.769531 346.332031 269.609375 349.328125 C 269.535156 350.765625 268.386719 351.890625 266.949219 351.9375 C 259.089844 352.207031 253.265625 352.289062 249.152344 352.289062 " fill-opacity="1" fill-rule="nonzero"/><path fill="#12354d" d="M 251.289062 349.554688 C 247.167969 349.554688 244.566406 349.363281 244.515625 349.363281 C 244.179688 349.335938 243.929688 349.042969 243.953125 348.707031 C 243.980469 348.375 244.28125 348.125 244.609375 348.148438 C 244.703125 348.15625 254.425781 348.863281 266.1875 347.5 C 266.519531 347.460938 266.824219 347.699219 266.859375 348.035156 C 266.898438 348.367188 266.660156 348.671875 266.328125 348.707031 C 260.53125 349.382812 255.21875 349.554688 251.289062 349.554688 " fill-opacity="1" fill-rule="nonzero"/><path fill="#12354d" d="M 253.003906 344.851562 C 252.816406 344.851562 252.628906 344.761719 252.511719 344.597656 C 252.316406 344.324219 252.375 343.945312 252.652344 343.75 L 257.976562 339.917969 C 258.246094 339.722656 258.628906 339.785156 258.824219 340.054688 C 259.019531 340.332031 258.960938 340.710938 258.683594 340.90625 L 253.359375 344.734375 C 253.253906 344.8125 253.128906 344.851562 253.003906 344.851562 " fill-opacity="1" fill-rule="nonzero"/><path fill="#e67e22" d="M 265.730469 218.371094 C 265.730469 218.371094 255.820312 286.359375 257.933594 331.734375 L 261.023438 332.042969 C 262.6875 332.210938 264.359375 332.25 266.027344 332.167969 L 268.960938 332.019531 C 268.960938 332.019531 280.78125 263.089844 286.679688 251.644531 C 286.679688 251.644531 302.730469 312.941406 303.347656 329.546875 C 303.347656 329.546875 310.484375 330.265625 313.324219 329.242188 C 314.851562 313.214844 315.292969 296.625 315.367188 286.210938 C 315.585938 256.402344 312.738281 242.867188 311.175781 236.441406 C 309.742188 230.546875 308.203125 225.75 307.082031 222.507812 L 303.328125 211.804688 L 265.730469 218.371094 " fill-opacity="1" fill-rule="nonzero"/><path fill="#12354d" d="M 258.519531 331.179688 L 261.085938 331.4375 C 262.710938 331.601562 264.363281 331.640625 266 331.558594 L 268.445312 331.4375 C 269.59375 324.792969 280.457031 262.386719 286.140625 251.363281 C 286.257812 251.140625 286.5 251.011719 286.746094 251.039062 C 287 251.066406 287.207031 251.246094 287.269531 251.488281 C 287.429688 252.09375 303.007812 311.761719 303.933594 328.988281 C 305.523438 329.121094 310.347656 329.445312 312.757812 328.785156 C 314.351562 311.832031 314.699219 294.855469 314.761719 286.207031 C 314.96875 257.972656 312.476562 244.367188 310.589844 236.585938 C 309.449219 231.902344 308.074219 227.234375 306.507812 222.707031 L 302.929688 212.492188 L 266.273438 218.894531 C 265.4375 224.78125 256.617188 288.273438 258.519531 331.179688 Z M 264.355469 332.816406 C 263.222656 332.816406 262.085938 332.761719 260.964844 332.648438 L 257.875 332.339844 C 257.570312 332.308594 257.339844 332.0625 257.324219 331.761719 C 255.238281 286.847656 265.03125 218.964844 265.132812 218.285156 C 265.167969 218.023438 265.367188 217.816406 265.628906 217.773438 L 303.226562 211.207031 C 303.519531 211.152344 303.804688 211.324219 303.902344 211.605469 L 307.65625 222.308594 C 309.238281 226.871094 310.621094 231.578125 311.769531 236.300781 C 313.675781 244.140625 316.1875 257.847656 315.976562 286.214844 C 315.914062 294.953125 315.5625 312.171875 313.929688 329.300781 C 313.910156 329.535156 313.753906 329.734375 313.535156 329.8125 C 310.59375 330.871094 303.585938 330.183594 303.289062 330.152344 C 302.984375 330.121094 302.753906 329.875 302.742188 329.570312 C 302.191406 314.75 289.09375 263.414062 286.527344 253.46875 C 280.542969 268.320312 269.675781 331.460938 269.5625 332.121094 C 269.511719 332.402344 269.277344 332.613281 268.992188 332.628906 L 266.0625 332.773438 C 265.496094 332.800781 264.925781 332.816406 264.355469 332.816406 " fill-opacity="1" fill-rule="nonzero"/><path fill="#12354d" d="M 287.238281 254.242188 C 286.96875 254.242188 286.726562 254.066406 286.652344 253.792969 L 285.003906 247.792969 C 284.617188 246.394531 283.496094 245.339844 282.070312 245.042969 L 280.53125 244.726562 C 280.199219 244.660156 279.988281 244.335938 280.054688 244.007812 C 280.125 243.679688 280.449219 243.46875 280.777344 243.535156 L 282.316406 243.851562 C 284.191406 244.242188 285.667969 245.625 286.175781 247.46875 L 287.824219 253.472656 C 287.914062 253.796875 287.722656 254.128906 287.398438 254.21875 C 287.347656 254.234375 287.292969 254.242188 287.238281 254.242188 " fill-opacity="1" fill-rule="nonzero"/><path fill="#12354d" d="M 309.019531 243.0625 C 308.984375 243.0625 308.953125 243.0625 308.917969 243.058594 C 299.644531 241.511719 297.75 234.117188 297.730469 234.042969 C 297.652344 233.714844 297.851562 233.386719 298.179688 233.308594 C 298.503906 233.230469 298.835938 233.429688 298.914062 233.753906 C 298.980469 234.03125 300.664062 240.445312 309.117188 241.855469 C 309.449219 241.910156 309.671875 242.226562 309.617188 242.554688 C 309.566406 242.855469 309.308594 243.0625 309.019531 243.0625 " fill-opacity="1" fill-rule="nonzero"/><path fill="#12354d" d="M 265.285156 238.597656 C 265.050781 238.597656 264.828125 238.460938 264.726562 238.230469 C 264.59375 237.921875 264.734375 237.566406 265.042969 237.429688 C 269.765625 235.382812 269.652344 230.996094 269.652344 230.953125 C 269.636719 230.617188 269.898438 230.332031 270.238281 230.320312 C 270.5625 230.3125 270.851562 230.570312 270.867188 230.90625 C 270.867188 230.957031 271.003906 236.167969 265.527344 238.546875 C 265.449219 238.582031 265.367188 238.597656 265.285156 238.597656 " fill-opacity="1" fill-rule="nonzero"/><path fill="#12354d" d="M 266.53125 161.785156 C 273.085938 161.046875 287.078125 159.722656 296.703125 160.601562 C 299.609375 160.867188 303.800781 162.640625 306.007812 164.550781 C 312.519531 170.167969 324.796875 182.535156 326.847656 197.378906 C 327.148438 199.542969 325.726562 201.578125 323.59375 202.050781 L 312.25 204.5625 C 312.25 204.5625 316.769531 222.386719 316.40625 225.464844 C 316.042969 228.542969 306.671875 233.78125 294.949219 229.484375 C 285.808594 226.136719 272.875 223.472656 264.664062 226.363281 C 264.585938 226.386719 263.800781 232.699219 263.71875 232.710938 C 261.082031 233.09375 258.425781 232.070312 258.488281 228.363281 L 259.738281 209.117188 L 244.703125 207.128906 L 243.359375 206.683594 C 239.296875 205.328125 237.195312 200.847656 238.765625 196.859375 C 242.292969 187.871094 247.625 173.316406 257.496094 165.277344 C 259.605469 163.558594 263.824219 162.089844 266.53125 161.785156 " fill-opacity="1" fill-rule="nonzero"/><path fill="#e67e22" d="M 273.363281 221.019531 L 249.871094 221.019531 C 248.847656 221.019531 247.964844 220.328125 247.714844 219.335938 L 239.585938 186.558594 C 239.238281 185.160156 240.300781 183.804688 241.742188 183.804688 L 265.238281 183.804688 C 266.257812 183.804688 267.144531 184.503906 267.394531 185.492188 L 275.519531 218.265625 C 275.867188 219.667969 274.808594 221.019531 273.363281 221.019531 " fill-opacity="1" fill-rule="nonzero"/><path fill="#12354d" d="M 241.738281 184.414062 C 241.242188 184.414062 240.78125 184.640625 240.472656 185.035156 C 240.164062 185.429688 240.058594 185.929688 240.175781 186.414062 L 248.304688 219.191406 C 248.484375 219.910156 249.125 220.414062 249.871094 220.414062 L 273.363281 220.414062 C 273.863281 220.414062 274.328125 220.1875 274.632812 219.796875 C 274.941406 219.402344 275.050781 218.898438 274.929688 218.414062 L 266.800781 185.636719 C 266.621094 184.917969 265.980469 184.414062 265.234375 184.414062 Z M 273.363281 221.628906 L 249.871094 221.628906 C 248.566406 221.628906 247.4375 220.746094 247.125 219.484375 L 238.996094 186.707031 C 238.785156 185.859375 238.972656 184.972656 239.511719 184.285156 C 240.054688 183.59375 240.867188 183.199219 241.738281 183.199219 L 265.234375 183.199219 C 266.539062 183.199219 267.664062 184.082031 267.980469 185.347656 L 276.109375 218.121094 C 276.320312 218.972656 276.128906 219.855469 275.59375 220.546875 C 275.050781 221.234375 274.238281 221.628906 273.363281 221.628906 " fill-opacity="1" fill-rule="nonzero"/><path fill="#ffffff" d="M 243.40625 200.558594 L 244.195312 203.867188 L 247.039062 202.917969 C 248.601562 202.398438 250.105469 201.703125 251.515625 200.847656 L 253.144531 199.859375 C 254.363281 199.121094 255.941406 199.699219 256.414062 201.042969 C 257.417969 203.894531 257.21875 208.671875 246.988281 211.671875 C 241.34375 213.328125 239.726562 206.09375 240.457031 202.074219 C 240.644531 201.046875 241.148438 200.390625 241.664062 199.976562 C 242.285156 199.480469 243.210938 199.789062 243.40625 200.558594 " fill-opacity="1" fill-rule="nonzero"/><path fill="#12354d" d="M 242.34375 200.34375 C 242.257812 200.34375 242.152344 200.367188 242.046875 200.449219 C 241.519531 200.871094 241.1875 201.453125 241.054688 202.183594 C 240.566406 204.886719 241.1875 208.703125 243.085938 210.410156 C 244.070312 211.296875 245.328125 211.523438 246.820312 211.085938 C 251.496094 209.714844 254.460938 207.855469 255.636719 205.558594 C 256.316406 204.238281 256.382812 202.785156 255.839844 201.246094 C 255.675781 200.773438 255.3125 200.410156 254.84375 200.242188 C 254.386719 200.074219 253.878906 200.125 253.457031 200.378906 L 251.828125 201.371094 C 250.382812 202.246094 248.835938 202.964844 247.226562 203.496094 L 244.390625 204.441406 C 244.226562 204.496094 244.046875 204.480469 243.902344 204.398438 C 243.753906 204.316406 243.644531 204.171875 243.605469 204.007812 L 242.816406 200.703125 C 242.753906 200.476562 242.578125 200.394531 242.503906 200.371094 C 242.46875 200.359375 242.414062 200.34375 242.34375 200.34375 Z M 245.421875 212.519531 C 244.230469 212.519531 243.160156 212.113281 242.273438 211.316406 C 239.976562 209.25 239.3125 204.957031 239.859375 201.96875 C 240.046875 200.941406 240.527344 200.113281 241.285156 199.5 C 241.742188 199.136719 242.335938 199.03125 242.890625 199.214844 C 243.441406 199.402344 243.851562 199.847656 243.996094 200.410156 C 244 200.410156 244 200.414062 244 200.414062 L 244.632812 203.078125 L 246.84375 202.34375 C 248.363281 201.835938 249.828125 201.160156 251.199219 200.328125 L 252.828125 199.339844 C 253.5625 198.894531 254.445312 198.804688 255.253906 199.09375 C 256.066406 199.386719 256.699219 200.019531 256.988281 200.839844 C 257.636719 202.679688 257.542969 204.503906 256.722656 206.113281 C 255.386719 208.71875 252.167969 210.785156 247.160156 212.253906 C 246.558594 212.429688 245.976562 212.519531 245.421875 212.519531 " fill-opacity="1" fill-rule="nonzero"/><path fill="#ffffff" d="M 297.738281 181.585938 C 298.917969 182.789062 300.25 183.820312 301.714844 184.65625 C 306.648438 187.460938 318.429688 194.261719 321.359375 196.765625 C 325.09375 199.957031 326.882812 201.148438 323.878906 209.355469 C 318.988281 222.730469 296.179688 188.386719 296.179688 188.386719 C 296.179688 188.386719 289.476562 189.597656 287.972656 183.726562 C 287.972656 183.726562 284.480469 184.382812 283.023438 183.753906 C 281.910156 183.269531 281.957031 181.375 283.449219 181.167969 L 293.082031 179.371094 C 294.410156 179.132812 295.769531 179.566406 296.714844 180.53125 L 297.738281 181.585938 " fill-opacity="1" fill-rule="nonzero"/><path fill="#12354d" d="M 296.179688 187.78125 C 296.378906 187.78125 296.570312 187.878906 296.683594 188.050781 C 301.242188 194.910156 314.421875 212.566406 320.609375 211.816406 C 321.820312 211.675781 322.703125 210.800781 323.308594 209.144531 C 326.074219 201.582031 324.773438 200.472656 321.296875 197.507812 L 320.964844 197.226562 C 318.078125 194.757812 306.328125 187.980469 301.414062 185.179688 C 299.902344 184.320312 298.519531 183.253906 297.304688 182.007812 L 296.277344 180.957031 C 295.476562 180.136719 294.324219 179.765625 293.191406 179.96875 L 283.558594 181.765625 C 283.019531 181.839844 282.894531 182.191406 282.867188 182.394531 C 282.828125 182.679688 282.933594 183.050781 283.265625 183.195312 C 284.320312 183.652344 286.9375 183.300781 287.859375 183.128906 C 288.175781 183.070312 288.484375 183.265625 288.5625 183.578125 C 289.90625 188.824219 295.820312 187.832031 296.070312 187.789062 C 296.105469 187.78125 296.140625 187.78125 296.179688 187.78125 Z M 320.261719 213.054688 C 312.34375 213.054688 297.882812 192.011719 295.878906 189.039062 C 294.382812 189.1875 289.15625 189.335938 287.539062 184.417969 C 286.441406 184.585938 284.050781 184.859375 282.78125 184.308594 C 282.003906 183.972656 281.539062 183.117188 281.660156 182.230469 C 281.78125 181.34375 282.449219 180.691406 283.363281 180.5625 L 292.972656 178.769531 C 294.507812 178.496094 296.066406 178.996094 297.148438 180.109375 L 298.175781 181.160156 C 299.308594 182.324219 300.601562 183.320312 302.015625 184.125 C 306.960938 186.941406 318.789062 193.765625 321.753906 196.304688 L 322.085938 196.582031 C 325.941406 199.867188 327.390625 201.523438 324.453125 209.5625 C 323.683594 211.660156 322.441406 212.824219 320.753906 213.027344 C 320.589844 213.042969 320.429688 213.054688 320.261719 213.054688 " fill-opacity="1" fill-rule="nonzero"/><path fill="#ffffff" d="M 275.410156 149.183594 L 274.6875 159.21875 C 274.53125 160.523438 273.589844 161.597656 272.316406 161.929688 L 268.792969 162.847656 L 271.078125 164.589844 C 276.148438 168.453125 283.171875 168.457031 288.25 164.605469 L 291.867188 161.859375 L 287.492188 160.882812 C 286.230469 160.601562 285.265625 159.59375 285.035156 158.324219 L 283.101562 145.050781 L 275.410156 149.183594 " fill-opacity="1" fill-rule="nonzero"/><path fill="#12354d" d="M 270.15625 163.125 L 271.445312 164.109375 C 276.28125 167.789062 283.039062 167.792969 287.878906 164.121094 L 290.453125 162.167969 L 287.355469 161.476562 C 285.855469 161.140625 284.707031 159.945312 284.4375 158.433594 L 282.621094 145.996094 L 275.992188 149.5625 L 275.292969 159.261719 C 275.101562 160.855469 273.992188 162.121094 272.46875 162.519531 Z M 279.671875 168.089844 C 276.507812 168.089844 273.347656 167.082031 270.710938 165.074219 L 268.421875 163.332031 C 268.234375 163.191406 268.148438 162.957031 268.195312 162.730469 C 268.238281 162.5 268.414062 162.320312 268.636719 162.261719 L 272.164062 161.34375 C 273.199219 161.070312 273.953125 160.210938 274.082031 159.144531 L 274.800781 149.140625 C 274.820312 148.933594 274.9375 148.746094 275.121094 148.648438 L 282.8125 144.511719 C 282.988281 144.417969 283.195312 144.417969 283.371094 144.503906 C 283.550781 144.59375 283.671875 144.765625 283.703125 144.960938 L 285.636719 158.238281 C 285.820312 159.246094 286.597656 160.0625 287.621094 160.289062 L 292 161.265625 C 292.230469 161.320312 292.410156 161.5 292.460938 161.730469 C 292.511719 161.960938 292.421875 162.203125 292.234375 162.34375 L 288.617188 165.089844 C 285.984375 167.089844 282.828125 168.089844 279.671875 168.089844 " fill-opacity="1" fill-rule="nonzero"/><path fill="#12354d" d="M 264.007812 135.21875 C 266.421875 133.941406 264.476562 137.917969 272.410156 131.050781 C 275.574219 128.316406 275.683594 133.421875 276.503906 132.714844 C 279.539062 130.105469 279.433594 130.1875 281.351562 129.855469 C 282.617188 129.636719 284.3125 131.382812 284.816406 133.039062 C 285.484375 135.222656 284.027344 136.53125 284.523438 141.5625 C 284.875 145.097656 285.984375 146.835938 284.96875 147.839844 C 283.9375 148.851562 282.261719 147.613281 281.050781 148.636719 C 279.488281 149.960938 281.273438 152.90625 280.117188 154.996094 C 279.390625 156.316406 277 157.863281 271.96875 157.746094 C 271.152344 157.722656 270.460938 157.125 270.328125 156.316406 C 270.15625 155.28125 269.949219 153.976562 269.855469 152.707031 C 269.40625 146.671875 270.707031 144.667969 269.425781 143.640625 C 267.46875 142.058594 264.132812 145.003906 262.722656 143.613281 C 261.253906 142.171875 260.707031 136.964844 264.007812 135.21875 " fill-opacity="1" fill-rule="nonzero"/><path fill="#ffffff" d="M 276.007812 138.601562 L 275.910156 140.25 C 275.859375 141.027344 275.867188 141.804688 275.925781 142.582031 C 276.042969 144.035156 276.214844 146.539062 276.207031 147.949219 C 276.195312 150.019531 269.792969 150.425781 269.792969 150.425781 L 268.984375 149.519531 L 268.230469 149.554688 C 268.085938 149.558594 267.9375 149.535156 267.808594 149.46875 C 267.488281 149.296875 267.324219 148.953125 267.382812 148.617188 C 267.683594 146.789062 268.210938 142.753906 267.628906 139.613281 C 267.628906 139.613281 271.1875 136.722656 276.007812 138.601562 " fill-opacity="1" fill-rule="nonzero"/><path fill="#12354d" d="M 268.984375 148.914062 C 269.152344 148.914062 269.320312 148.984375 269.433594 149.113281 L 270.046875 149.796875 C 272.726562 149.585938 275.59375 148.800781 275.601562 147.945312 C 275.605469 146.546875 275.425781 144.011719 275.320312 142.625 C 275.257812 141.828125 275.25 141.015625 275.300781 140.210938 L 275.371094 139.019531 C 271.84375 137.832031 269.144531 139.3125 268.289062 139.882812 C 268.777344 142.984375 268.3125 146.71875 267.980469 148.71875 C 267.96875 148.78125 267.992188 148.878906 268.089844 148.929688 C 268.097656 148.933594 268.132812 148.949219 268.203125 148.945312 L 268.957031 148.914062 C 268.964844 148.914062 268.972656 148.914062 268.984375 148.914062 Z M 269.792969 151.035156 C 269.621094 151.035156 269.457031 150.960938 269.34375 150.832031 L 268.722656 150.140625 L 268.257812 150.160156 C 267.992188 150.167969 267.742188 150.117188 267.527344 150.007812 C 266.980469 149.722656 266.679688 149.121094 266.777344 148.519531 C 267.046875 146.90625 267.605469 142.820312 267.027344 139.722656 C 266.988281 139.503906 267.070312 139.28125 267.242188 139.140625 C 267.398438 139.015625 271.132812 136.050781 276.230469 138.035156 C 276.476562 138.132812 276.632812 138.375 276.617188 138.636719 L 276.515625 140.285156 C 276.472656 141.03125 276.476562 141.789062 276.53125 142.535156 C 276.640625 143.9375 276.824219 146.511719 276.8125 147.953125 C 276.800781 150.398438 271.464844 150.929688 269.832031 151.03125 C 269.820312 151.035156 269.808594 151.035156 269.792969 151.035156 " fill-opacity="1" fill-rule="nonzero"/><path fill="#ffffff" d="M 277.132812 143.679688 C 277.132812 143.679688 277.371094 139.714844 279.144531 140.21875 C 280.925781 140.71875 280.554688 145.074219 277.132812 143.679688 " fill-opacity="1" fill-rule="nonzero"/><path fill="#12354d" d="M 113.328125 198.492188 C 113.328125 198.492188 115.390625 205.558594 84.625 207.28125 C 53.859375 209.003906 59.007812 200.261719 59.007812 200.261719 L 91.304688 190.851562 L 113.328125 198.492188 " fill-opacity="1" fill-rule="nonzero"/><path fill="#ffffff" d="M 78.269531 308.777344 C 79.09375 308.738281 75.457031 327.054688 75.457031 327.054688 L 83.246094 327.980469 L 87.484375 307.371094 L 78.269531 308.777344 " fill-opacity="1" fill-rule="nonzero"/><path fill="#12354d" d="M 78.296875 309.382812 Z M 78.296875 309.382812 Z M 76.179688 326.527344 L 82.765625 327.3125 L 86.710938 308.105469 L 78.992188 309.28125 C 78.996094 310.296875 78.726562 312.613281 77.71875 318.300781 C 77.113281 321.730469 76.453125 325.140625 76.179688 326.527344 Z M 83.246094 328.589844 C 83.222656 328.589844 83.199219 328.585938 83.175781 328.585938 L 75.386719 327.65625 C 75.214844 327.636719 75.066406 327.546875 74.964844 327.410156 C 74.867188 327.273438 74.828125 327.101562 74.859375 326.933594 C 76.394531 319.210938 77.90625 310.515625 77.785156 309.140625 C 77.71875 309.054688 77.675781 308.953125 77.664062 308.835938 C 77.632812 308.515625 77.859375 308.222656 78.179688 308.175781 L 87.390625 306.769531 C 87.589844 306.738281 87.789062 306.808594 87.925781 306.953125 C 88.0625 307.097656 88.121094 307.296875 88.082031 307.492188 L 83.84375 328.101562 C 83.785156 328.386719 83.53125 328.589844 83.246094 328.589844 " fill-opacity="1" fill-rule="nonzero"/><path fill="#e67e22" d="M 71.988281 333.515625 C 72.648438 329.574219 73.671875 324.273438 74.523438 323.199219 C 75.921875 321.445312 79.714844 325.273438 79.714844 325.273438 C 79.714844 325.273438 81.445312 319.609375 85.191406 320.359375 C 88.011719 320.921875 97.492188 327.804688 102.488281 333.28125 C 104.121094 335.070312 102.832031 337.953125 100.40625 337.953125 L 75.746094 337.953125 C 73.390625 337.953125 71.597656 335.839844 71.988281 333.515625 " fill-opacity="1" fill-rule="nonzero"/><path fill="#12354d" d="M 72.589844 333.613281 C 72.433594 334.546875 72.691406 335.492188 73.300781 336.210938 C 73.910156 336.933594 74.800781 337.347656 75.746094 337.347656 L 100.40625 337.347656 C 101.460938 337.347656 102.136719 336.667969 102.417969 336.03125 C 102.777344 335.21875 102.636719 334.34375 102.039062 333.691406 C 97.105469 328.28125 87.714844 321.480469 85.070312 320.957031 C 81.898438 320.324219 80.3125 325.398438 80.296875 325.449219 C 80.234375 325.652344 80.066406 325.808594 79.859375 325.863281 C 79.652344 325.914062 79.433594 325.851562 79.28125 325.699219 C 78.367188 324.777344 76.558594 323.347656 75.519531 323.347656 C 75.5 323.347656 75.480469 323.347656 75.460938 323.351562 C 75.261719 323.359375 75.117188 323.429688 75 323.578125 C 74.722656 323.925781 73.933594 325.605469 72.589844 333.613281 Z M 100.40625 338.5625 L 75.746094 338.5625 C 74.445312 338.5625 73.214844 337.992188 72.371094 336.996094 C 71.53125 336.003906 71.171875 334.699219 71.390625 333.414062 C 72.929688 324.230469 73.773438 323.167969 74.046875 322.820312 C 74.382812 322.402344 74.847656 322.164062 75.394531 322.132812 C 76.792969 322.050781 78.507812 323.371094 79.460938 324.203125 C 80.167969 322.519531 82.027344 319.105469 85.3125 319.761719 C 88.421875 320.382812 98.140625 327.609375 102.9375 332.871094 C 103.855469 333.875 104.082031 335.273438 103.53125 336.523438 C 102.976562 337.78125 101.777344 338.5625 100.40625 338.5625 " fill-opacity="1" fill-rule="nonzero"/><path fill="#ffffff" d="M 99.019531 334.3125 L 74.523438 334.3125 C 74.1875 334.3125 73.917969 334.039062 73.917969 333.703125 C 73.917969 333.367188 74.1875 333.09375 74.523438 333.09375 L 99.019531 333.09375 C 99.355469 333.09375 99.628906 333.367188 99.628906 333.703125 C 99.628906 334.039062 99.355469 334.3125 99.019531 334.3125 " fill-opacity="1" fill-rule="nonzero"/><path fill="#ffffff" d="M 45.753906 310.046875 L 36.84375 327.710938 L 31.859375 327.199219 L 36.289062 308.273438 L 45.753906 310.046875 " fill-opacity="1" fill-rule="nonzero"/><path fill="#12354d" d="M 32.609375 326.664062 L 36.488281 327.066406 L 44.847656 310.496094 L 36.75 308.980469 Z M 36.84375 328.320312 C 36.820312 328.320312 36.800781 328.320312 36.78125 328.316406 L 31.796875 327.804688 C 31.621094 327.789062 31.464844 327.695312 31.363281 327.554688 C 31.261719 327.410156 31.226562 327.230469 31.265625 327.0625 L 35.699219 308.132812 C 35.773438 307.820312 36.078125 307.613281 36.402344 307.675781 L 45.867188 309.449219 C 46.054688 309.484375 46.214844 309.605469 46.300781 309.777344 C 46.386719 309.949219 46.382812 310.148438 46.296875 310.320312 L 37.386719 327.984375 C 37.28125 328.191406 37.070312 328.320312 36.84375 328.320312 " fill-opacity="1" fill-rule="nonzero"/><path fill="#e67e22" d="M 36.136719 325.09375 C 36.136719 325.09375 33.601562 321.230469 29.457031 324.179688 C 29.457031 324.179688 23.386719 337.78125 22.15625 348.300781 C 21.808594 351.277344 25.171875 353.265625 27.628906 351.550781 C 33.375 347.535156 42.097656 339.738281 45.652344 327.640625 C 45.652344 327.640625 43.054688 323.429688 39.867188 321.863281 L 36.136719 325.09375 " fill-opacity="1" fill-rule="nonzero"/><path fill="#12354d" d="M 29.945312 324.578125 C 29.277344 326.109375 23.898438 338.660156 22.761719 348.371094 C 22.628906 349.503906 23.160156 350.570312 24.144531 351.15625 C 25.136719 351.75 26.335938 351.710938 27.277344 351.054688 C 33.464844 346.730469 41.535156 339.1875 44.992188 327.738281 C 44.4375 326.902344 42.378906 323.964844 39.953125 322.59375 L 36.535156 325.554688 C 36.402344 325.667969 36.230469 325.71875 36.054688 325.695312 C 35.878906 325.671875 35.726562 325.574219 35.628906 325.429688 C 35.613281 325.40625 34.671875 324.023438 33.097656 323.730469 C 32.105469 323.546875 31.046875 323.832031 29.945312 324.578125 Z M 25.636719 352.792969 C 24.910156 352.792969 24.183594 352.597656 23.519531 352.203125 C 22.117188 351.363281 21.363281 349.84375 21.554688 348.230469 C 22.78125 337.738281 28.839844 324.070312 28.902344 323.929688 C 28.945312 323.832031 29.015625 323.746094 29.105469 323.683594 C 30.539062 322.664062 31.960938 322.28125 33.335938 322.539062 C 34.714844 322.796875 35.695312 323.648438 36.214844 324.222656 L 39.46875 321.402344 C 39.65625 321.242188 39.917969 321.207031 40.136719 321.316406 C 43.441406 322.945312 46.0625 327.144531 46.171875 327.324219 C 46.261719 327.472656 46.285156 327.648438 46.238281 327.816406 C 42.726562 339.753906 34.367188 347.582031 27.976562 352.050781 C 27.265625 352.546875 26.453125 352.792969 25.636719 352.792969 " fill-opacity="1" fill-rule="nonzero"/><path fill="#ffffff" d="M 24.359375 349.605469 C 24.035156 349.605469 23.765625 349.347656 23.753906 349.019531 C 23.738281 348.6875 24 348.402344 24.335938 348.390625 C 24.445312 348.382812 33.824219 347.679688 43.074219 328.125 C 43.21875 327.824219 43.582031 327.691406 43.886719 327.835938 C 44.1875 327.976562 44.316406 328.34375 44.175781 328.644531 C 34.554688 348.980469 24.796875 349.589844 24.382812 349.605469 C 24.375 349.605469 24.367188 349.605469 24.359375 349.605469 " fill-opacity="1" fill-rule="nonzero"/><path fill="#12354d" d="M 47.371094 312.996094 L 32.417969 312.496094 L 52.8125 231.898438 C 56.078125 218.988281 61.375 206.683594 68.507812 195.441406 L 99.757812 195.425781 C 99.757812 195.425781 111.285156 239.421875 90.152344 311.828125 L 74.523438 311.828125 C 74.523438 311.828125 80.609375 245.769531 80.105469 226.785156 C 80.105469 226.785156 65.417969 281.050781 47.371094 312.996094 " fill-opacity="1" fill-rule="nonzero"/><path fill="#b2e0ff" d="M 78.394531 236.214844 C 78.339844 236.214844 78.285156 236.207031 78.230469 236.191406 C 77.90625 236.101562 77.71875 235.765625 77.808594 235.441406 L 83.324219 215.839844 C 83.378906 215.640625 83.53125 215.484375 83.730469 215.421875 L 87.953125 214.136719 C 88.273438 214.035156 88.617188 214.21875 88.714844 214.539062 C 88.8125 214.859375 88.628906 215.199219 88.308594 215.296875 L 84.402344 216.488281 L 78.980469 235.769531 C 78.90625 236.039062 78.660156 236.214844 78.394531 236.214844 " fill-opacity="1" fill-rule="nonzero"/><path fill="#ffffff" d="M 158.714844 143.417969 L 147.171875 149.652344 C 147.171875 149.652344 140.089844 168.113281 129.960938 169.222656 C 119.828125 170.335938 109.804688 156.324219 109.804688 156.324219 L 103.078125 170.710938 C 103.078125 170.710938 112.953125 185.984375 128.617188 183.523438 C 144.277344 181.058594 148.546875 157.53125 148.546875 157.53125 C 148.539062 157.550781 152.253906 157.902344 153.652344 154.28125 C 154.84375 151.207031 154.34375 149.390625 154.34375 149.390625 C 154.34375 149.390625 159.910156 146.421875 158.714844 143.417969 " fill-opacity="1" fill-rule="nonzero"/><path fill="#12354d" d="M 103.777344 170.65625 C 105.199219 172.675781 114.585938 185.105469 128.523438 182.921875 C 143.582031 180.554688 147.90625 157.65625 147.949219 157.425781 C 147.992188 157.171875 148.191406 156.976562 148.445312 156.933594 C 148.515625 156.921875 148.582031 156.921875 148.648438 156.933594 C 148.859375 156.953125 151.902344 157.121094 153.085938 154.066406 C 154.175781 151.246094 153.761719 149.566406 153.757812 149.546875 C 153.6875 149.277344 153.8125 148.988281 154.058594 148.855469 C 155.3125 148.183594 158.199219 146.214844 158.273438 144.351562 L 147.652344 150.082031 C 146.789062 152.261719 139.929688 168.742188 130.023438 169.828125 C 129.613281 169.875 129.199219 169.894531 128.789062 169.894531 C 120.214844 169.898438 112.1875 160.410156 109.925781 157.496094 Z M 125.246094 184.394531 C 111.375 184.394531 102.660156 171.1875 102.566406 171.042969 C 102.453125 170.867188 102.4375 170.644531 102.527344 170.453125 L 109.253906 156.066406 C 109.34375 155.867188 109.535156 155.738281 109.75 155.714844 C 109.960938 155.695312 110.171875 155.792969 110.296875 155.96875 C 110.398438 156.105469 120.238281 169.683594 129.894531 168.621094 C 139.542969 167.5625 146.53125 149.617188 146.601562 149.433594 C 146.652344 149.300781 146.753906 149.1875 146.878906 149.117188 L 158.429688 142.882812 C 158.582031 142.804688 158.761719 142.789062 158.925781 142.847656 C 159.089844 142.90625 159.214844 143.03125 159.28125 143.195312 C 160.472656 146.1875 156.335938 148.929688 155.015625 149.710938 C 155.105469 150.484375 155.125 152.160156 154.21875 154.503906 C 153.160156 157.242188 150.898438 157.9375 149.644531 158.101562 C 149.410156 158.132812 149.210938 158.152344 149.042969 158.160156 C 148.296875 161.757812 143.496094 181.800781 128.710938 184.121094 C 127.523438 184.308594 126.367188 184.394531 125.246094 184.394531 " fill-opacity="1" fill-rule="nonzero"/><path fill="#12354d" d="M 148.214844 156.175781 C 147.957031 156.175781 147.714844 156.007812 147.636719 155.746094 C 147.535156 155.425781 147.714844 155.085938 148.039062 154.988281 C 148.054688 154.980469 149.828125 154.410156 150.019531 153.023438 C 150.175781 151.878906 150.828125 151.023438 151.351562 150.507812 C 151.644531 150.210938 151.847656 149.84375 151.933594 149.445312 L 148.925781 150.644531 C 148.613281 150.769531 148.257812 150.617188 148.132812 150.304688 C 148.007812 149.992188 148.160156 149.636719 148.472656 149.511719 L 152.367188 147.960938 C 152.554688 147.886719 152.765625 147.910156 152.933594 148.023438 C 153.101562 148.136719 153.199219 148.324219 153.199219 148.527344 L 153.199219 148.972656 C 153.199219 149.882812 152.847656 150.734375 152.207031 151.367188 C 151.820312 151.753906 151.335938 152.382812 151.226562 153.1875 C 150.925781 155.347656 148.496094 156.117188 148.394531 156.148438 C 148.335938 156.167969 148.273438 156.175781 148.214844 156.175781 " fill-opacity="1" fill-rule="nonzero"/><path fill="#ffffff" d="M 70.292969 171.5625 C 70.292969 171.5625 63.171875 187.582031 51.558594 190.851562 C 39.949219 194.125 31.863281 184.238281 31.914062 174.03125 L 35.859375 172.722656 C 35.859375 172.722656 39.910156 183.183594 48.945312 180.460938 C 57.980469 177.738281 62.171875 156.460938 62.171875 156.460938 L 70.292969 171.5625 " fill-opacity="1" fill-rule="nonzero"/><path fill="#12354d" d="M 32.523438 174.46875 C 32.625 179.929688 35.105469 185.140625 39.066406 188.15625 C 41.507812 190.015625 45.632812 191.890625 51.394531 190.269531 C 61.789062 187.335938 68.621094 173.671875 69.613281 171.582031 L 62.414062 158.195312 C 61.21875 163.304688 57.003906 178.667969 49.121094 181.042969 C 48.023438 181.375 46.992188 181.519531 46.03125 181.519531 C 39.785156 181.519531 36.410156 175.347656 35.527344 173.472656 Z M 47.097656 192.105469 C 43.210938 192.105469 40.28125 190.609375 38.328125 189.125 C 33.964844 185.804688 31.273438 180.019531 31.304688 174.027344 C 31.304688 173.765625 31.472656 173.535156 31.722656 173.453125 L 35.667969 172.144531 C 35.976562 172.042969 36.308594 172.199219 36.429688 172.5 C 36.585938 172.90625 40.382812 182.402344 48.769531 179.878906 C 57.351562 177.292969 61.535156 156.550781 61.574219 156.34375 C 61.625 156.089844 61.828125 155.898438 62.082031 155.859375 C 62.332031 155.824219 62.585938 155.949219 62.707031 156.175781 L 70.828125 171.273438 C 70.917969 171.441406 70.925781 171.636719 70.847656 171.808594 C 70.550781 172.472656 63.476562 188.128906 51.722656 191.4375 C 50.054688 191.90625 48.515625 192.105469 47.097656 192.105469 " fill-opacity="1" fill-rule="nonzero"/><path fill="#ffffff" d="M 113.332031 156.109375 C 113.332031 156.109375 106.191406 146.789062 86.019531 148.53125 C 61.933594 150.609375 60.097656 155.367188 60.097656 155.367188 L 66.386719 168.109375 L 59.007812 200.261719 C 59.007812 200.261719 64.046875 204.4375 75.859375 202.09375 C 87.667969 199.75 107.964844 196.871094 113.328125 198.492188 L 105.847656 167.808594 L 113.332031 156.109375 " fill-opacity="1" fill-rule="nonzero"/><path fill="#12354d" d="M 59.691406 200 C 60.914062 200.785156 65.953125 203.441406 75.738281 201.496094 C 87.503906 199.160156 105.980469 196.578125 112.503906 197.683594 L 105.257812 167.953125 C 105.21875 167.792969 105.246094 167.621094 105.335938 167.480469 L 112.574219 156.164062 C 111.089844 154.582031 103.515625 147.628906 86.074219 149.136719 C 65.882812 150.878906 61.5625 154.53125 60.800781 155.414062 L 66.929688 167.839844 C 66.992188 167.964844 67.011719 168.105469 66.976562 168.246094 Z M 69.019531 203.421875 C 61.96875 203.421875 58.785156 200.867188 58.617188 200.730469 C 58.441406 200.582031 58.363281 200.351562 58.414062 200.125 L 65.746094 168.183594 L 59.550781 155.636719 C 59.476562 155.484375 59.46875 155.308594 59.53125 155.148438 C 59.734375 154.625 62.191406 149.976562 85.96875 147.925781 C 106.234375 146.175781 113.515625 155.347656 113.816406 155.738281 C 113.96875 155.941406 113.980469 156.21875 113.84375 156.433594 L 106.5 167.917969 L 113.917969 198.347656 C 113.972656 198.558594 113.90625 198.785156 113.746094 198.933594 C 113.589844 199.082031 113.363281 199.136719 113.152344 199.074219 C 108.019531 197.527344 87.9375 200.316406 75.976562 202.6875 C 73.332031 203.214844 71.019531 203.421875 69.019531 203.421875 " fill-opacity="1" fill-rule="nonzero"/><path fill="#b2e0ff" d="M 37.9375 185.074219 L 66.6875 186.234375 C 67.660156 186.234375 68.257812 185.167969 67.746094 184.339844 L 49.128906 150.320312 C 48.773438 149.738281 48.144531 149.386719 47.460938 149.386719 L 18.402344 150.046875 L 37.9375 185.074219 " fill-opacity="1" fill-rule="nonzero"/><path fill="#73c7ff" d="M 35.867188 186.234375 L 66.898438 186.234375 L 46.546875 149.386719 L 15.515625 149.386719 L 35.867188 186.234375 " fill-opacity="1" fill-rule="nonzero"/><path fill="#12354d" d="M 36.226562 185.625 L 65.871094 185.625 L 46.1875 149.992188 L 16.546875 149.992188 Z M 66.898438 186.839844 L 35.867188 186.839844 C 35.648438 186.839844 35.441406 186.722656 35.335938 186.527344 L 14.980469 149.679688 C 14.878906 149.492188 14.882812 149.261719 14.992188 149.074219 C 15.101562 148.890625 15.300781 148.777344 15.515625 148.777344 L 46.546875 148.777344 C 46.769531 148.777344 46.972656 148.898438 47.078125 149.089844 L 67.433594 185.9375 C 67.535156 186.128906 67.535156 186.355469 67.421875 186.542969 C 67.3125 186.726562 67.117188 186.839844 66.898438 186.839844 " fill-opacity="1" fill-rule="nonzero"/><path fill="#ffffff" d="M 35.15625 185.074219 C 35.15625 185.074219 35.738281 182.015625 35.15625 179.976562 C 34.570312 177.9375 30.957031 171.875 29.921875 170.609375 C 28.890625 169.339844 28.011719 182.886719 35.15625 185.074219 " fill-opacity="1" fill-rule="nonzero"/><path fill="#12354d" d="M 29.953125 171.683594 C 29.738281 173.15625 29.730469 176.527344 30.882812 179.640625 C 31.738281 181.949219 33.007812 183.492188 34.667969 184.238281 C 34.792969 183.25 34.941406 181.449219 34.570312 180.144531 C 34.09375 178.472656 31.335938 173.710938 29.953125 171.683594 Z M 35.15625 185.679688 C 35.09375 185.679688 35.035156 185.671875 34.976562 185.652344 C 30.515625 184.285156 28.773438 178.761719 28.632812 174.050781 C 28.582031 172.355469 28.695312 170.273438 29.53125 169.960938 C 29.773438 169.871094 30.125 169.890625 30.394531 170.222656 C 31.496094 171.578125 35.148438 177.742188 35.738281 179.808594 C 36.355469 181.964844 35.777344 185.054688 35.753906 185.1875 C 35.71875 185.355469 35.617188 185.503906 35.46875 185.59375 C 35.375 185.648438 35.265625 185.679688 35.15625 185.679688 " fill-opacity="1" fill-rule="nonzero"/><path fill="#12354d" d="M 144.058594 119.699219 C 147.972656 122.082031 148.585938 126.632812 148.632812 127.011719 C 149.246094 132.171875 145.570312 137.515625 141.558594 138.3125 C 138.125 138.996094 136.941406 135.859375 132.628906 136.0625 C 127.824219 136.289062 127.351562 140.28125 122.769531 141.289062 C 116.015625 142.773438 113.261719 134.917969 105.503906 135.464844 C 99.53125 135.890625 98.75 140.714844 92.242188 140.773438 C 91.503906 140.78125 85.679688 140.738281 81.792969 136.222656 C 77.894531 131.691406 77.808594 124.824219 80.695312 120.246094 C 80.992188 119.777344 84.164062 114.886719 88.367188 115.003906 C 91.003906 115.082031 91.53125 117.054688 94.039062 117.011719 C 97.902344 116.941406 98.675781 112.234375 102.058594 112.035156 C 105.964844 111.808594 106.835938 117.984375 112.09375 118.859375 C 116.066406 119.519531 117.191406 116.269531 121.453125 117.019531 C 125.875 117.796875 126.089844 121.535156 129.835938 121.65625 C 133.429688 121.773438 134.414062 118.378906 139.066406 118.351562 C 140.046875 118.347656 142.058594 118.484375 144.058594 119.699219 " fill-opacity="1" fill-rule="nonzero"/><path fill="#ffffff" d="M 73.210938 138.160156 C 72.941406 137.734375 74.214844 135.4375 74.261719 134.597656 C 74.304688 133.761719 73.648438 133.0625 73.375 132.183594 C 73.101562 131.304688 73.40625 129.738281 73.40625 129.738281 C 73.78125 119.257812 85.203125 121.742188 85.203125 121.742188 C 87.824219 122.539062 89.371094 125.484375 89.875 127.441406 C 90.851562 131.238281 89.050781 135.824219 89.050781 135.824219 C 89.128906 135.992188 91 148.269531 91.082031 148.429688 C 92.269531 150.710938 84.316406 152.203125 81.8125 149.90625 C 80.96875 149.128906 82.050781 143.425781 81.8125 143.417969 C 80.878906 143.394531 79.730469 144.402344 78.546875 144.085938 C 76.808594 143.625 75.5 139.269531 75.25 138.941406 C 75.128906 138.789062 74.726562 138.699219 74.304688 138.605469 C 73.839844 138.496094 73.351562 138.382812 73.210938 138.160156 " fill-opacity="1" fill-rule="nonzero"/><path fill="#12354d" d="M 73.679688 137.78125 Z M 73.78125 137.992188 Z M 74.835938 139.382812 L 74.839844 139.382812 Z M 81.78125 142.8125 C 81.796875 142.8125 81.8125 142.8125 81.832031 142.8125 C 82 142.816406 82.171875 142.898438 82.285156 143.027344 C 82.519531 143.292969 82.496094 143.523438 82.332031 145.015625 C 82.21875 146.101562 81.90625 148.988281 82.246094 149.476562 C 83.917969 151.007812 88.703125 150.550781 90.234375 149.375 C 90.703125 149.015625 90.597656 148.816406 90.542969 148.710938 C 90.464844 148.5625 90.453125 148.539062 89.410156 141.890625 C 89 139.273438 88.535156 136.3125 88.464844 135.992188 C 88.429688 135.863281 88.433594 135.726562 88.484375 135.601562 C 88.5 135.554688 90.203125 131.148438 89.285156 127.59375 C 88.875 125.996094 87.519531 123.097656 85.050781 122.335938 C 84.679688 122.261719 79.75 121.332031 76.636719 123.753906 C 74.992188 125.035156 74.113281 127.054688 74.015625 129.761719 C 74.015625 129.792969 74.011719 129.824219 74.003906 129.855469 C 73.929688 130.25 73.769531 131.40625 73.957031 132 C 74.046875 132.285156 74.183594 132.558594 74.335938 132.84375 C 74.613281 133.386719 74.902344 133.949219 74.867188 134.632812 C 74.84375 135.109375 74.566406 135.796875 74.273438 136.53125 C 74.121094 136.917969 73.878906 137.523438 73.804688 137.839844 C 73.984375 137.90625 74.277344 137.972656 74.441406 138.011719 C 75.035156 138.148438 75.480469 138.25 75.730469 138.570312 C 75.832031 138.703125 75.90625 138.878906 76.121094 139.417969 C 76.535156 140.457031 77.636719 143.214844 78.703125 143.5 C 79.203125 143.632812 79.746094 143.414062 80.328125 143.1875 C 80.796875 143 81.285156 142.8125 81.78125 142.8125 Z M 85.839844 151.664062 C 84.113281 151.664062 82.414062 151.28125 81.402344 150.355469 C 80.734375 149.738281 80.78125 148.097656 81.125 144.882812 C 81.152344 144.640625 81.179688 144.382812 81.199219 144.15625 C 81.0625 144.207031 80.917969 144.261719 80.773438 144.320312 C 80.105469 144.582031 79.273438 144.910156 78.390625 144.675781 C 76.734375 144.234375 75.601562 141.394531 74.992188 139.871094 C 74.914062 139.683594 74.832031 139.472656 74.78125 139.355469 C 74.648438 139.308594 74.382812 139.246094 74.199219 139.203125 C 73.582031 139.0625 72.976562 138.925781 72.699219 138.484375 C 72.398438 138.007812 72.628906 137.371094 73.144531 136.082031 C 73.363281 135.53125 73.636719 134.84375 73.652344 134.570312 C 73.671875 134.214844 73.476562 133.839844 73.253906 133.402344 C 73.09375 133.097656 72.914062 132.746094 72.796875 132.363281 C 72.503906 131.429688 72.742188 129.992188 72.800781 129.671875 C 72.921875 126.609375 73.960938 124.292969 75.894531 122.792969 C 79.570312 119.9375 85.097656 121.101562 85.332031 121.148438 C 85.347656 121.152344 85.363281 121.15625 85.378906 121.164062 C 88.378906 122.070312 89.988281 125.441406 90.464844 127.292969 C 91.382812 130.855469 90.007812 134.980469 89.679688 135.875 C 89.769531 136.347656 89.980469 137.667969 90.613281 141.703125 C 91.035156 144.398438 91.558594 147.726562 91.65625 148.21875 C 92.007812 148.96875 91.761719 149.738281 90.976562 150.339844 C 89.9375 151.136719 87.871094 151.664062 85.839844 151.664062 " fill-opacity="1" fill-rule="nonzero"/><path fill="#12354d" d="M 68.632812 122.433594 C 69.78125 121.269531 70.949219 122.429688 75.511719 121.789062 C 79.308594 121.257812 80.402344 120.1875 83.273438 120.660156 C 84.082031 120.792969 85.523438 121.03125 86.949219 122.074219 C 89.058594 123.617188 89.84375 125.785156 90.257812 127.402344 C 91.074219 130.554688 90.054688 134.234375 89.59375 135.625 C 89.484375 135.964844 89.148438 136.183594 88.789062 136.152344 C 87.832031 136.074219 86.984375 135.945312 86.230469 135.785156 C 85.871094 135.707031 85.667969 135.332031 85.804688 134.988281 C 85.839844 134.894531 85.875 134.800781 85.902344 134.699219 C 86.28125 133.371094 85.644531 132.023438 84.480469 131.691406 C 83.316406 131.359375 82.0625 132.167969 81.683594 133.5 C 81.660156 133.589844 81.636719 133.683594 81.621094 133.777344 C 79.945312 132.507812 79.085938 131.070312 77.535156 130.296875 C 77.351562 130.207031 76.535156 129.835938 75.292969 129.792969 C 72.601562 129.695312 71.707031 131.292969 70.429688 130.984375 C 68.207031 130.445312 66.570312 124.523438 68.632812 122.433594 " fill-opacity="1" fill-rule="nonzero"/><path fill="#12354d" d="M 81.539062 144.027344 C 81.28125 144.027344 81.042969 143.863281 80.960938 143.601562 C 80.859375 143.285156 81.039062 142.941406 81.359375 142.839844 C 84.867188 141.734375 85.417969 139.558594 85.441406 139.46875 C 85.519531 139.140625 85.84375 138.9375 86.167969 139.011719 C 86.492188 139.085938 86.699219 139.402344 86.628906 139.730469 C 86.605469 139.851562 85.949219 142.671875 81.722656 144 C 81.664062 144.019531 81.601562 144.027344 81.539062 144.027344 " fill-opacity="1" fill-rule="nonzero"/><path fill="#12354d" d="M 229.539062 321.757812 L 230.542969 325.75 L 233.183594 322.171875 Z M 230.265625 327.753906 C 230.226562 327.753906 230.1875 327.753906 230.148438 327.746094 C 229.917969 327.699219 229.734375 327.527344 229.675781 327.296875 L 228.140625 321.203125 C 228.09375 321.011719 228.140625 320.804688 228.273438 320.652344 C 228.40625 320.503906 228.601562 320.425781 228.800781 320.449219 L 234.367188 321.085938 C 234.582031 321.109375 234.769531 321.246094 234.855469 321.445312 C 234.941406 321.644531 234.917969 321.875 234.789062 322.050781 L 230.757812 327.507812 C 230.640625 327.667969 230.457031 327.753906 230.265625 327.753906 " fill-opacity="1" fill-rule="nonzero"/><path fill="#12354d" d="M 162.253906 339.457031 C 157.210938 339.457031 152.710938 339.207031 148.796875 338.835938 C 131.113281 337.140625 121.183594 332.589844 121.085938 332.542969 C 120.78125 332.402344 120.648438 332.039062 120.792969 331.734375 C 120.933594 331.429688 121.296875 331.296875 121.601562 331.441406 C 121.695312 331.484375 131.484375 335.964844 148.984375 337.628906 C 165.136719 339.167969 191.351562 338.554688 224.503906 326.894531 C 224.820312 326.785156 225.167969 326.949219 225.277344 327.265625 C 225.390625 327.585938 225.222656 327.933594 224.90625 328.042969 C 199.535156 336.964844 178.1875 339.457031 162.253906 339.457031 " fill-opacity="1" fill-rule="nonzero"/><path fill="#12354d" d="M 160.8125 345.609375 C 151.03125 345.609375 142.855469 344.75 136.398438 343.65625 C 119.28125 340.757812 110.191406 335.597656 110.101562 335.546875 C 109.8125 335.378906 109.710938 335.007812 109.878906 334.714844 C 110.046875 334.425781 110.417969 334.324219 110.710938 334.492188 C 110.796875 334.542969 119.75 339.613281 136.675781 342.472656 C 152.300781 345.109375 178.117188 346.339844 212.351562 337.246094 C 212.675781 337.15625 213.007812 337.351562 213.09375 337.675781 C 213.179688 338 212.988281 338.332031 212.664062 338.417969 C 192.304688 343.828125 174.898438 345.609375 160.8125 345.609375 " fill-opacity="1" fill-rule="nonzero"/><path fill="#12354d" d="M 108.203125 311.015625 C 107.878906 311.015625 107.609375 310.757812 107.59375 310.429688 L 107.5 307.847656 C 107.484375 307.511719 107.746094 307.230469 108.082031 307.21875 C 108.433594 307.195312 108.703125 307.46875 108.714844 307.804688 L 108.8125 310.382812 C 108.824219 310.71875 108.5625 311 108.226562 311.015625 C 108.21875 311.015625 108.210938 311.015625 108.203125 311.015625 " fill-opacity="1" fill-rule="nonzero"/><path fill="#12354d" d="M 108.511719 319.167969 C 108.183594 319.167969 107.914062 318.910156 107.902344 318.582031 L 107.804688 316 C 107.792969 315.667969 108.054688 315.382812 108.390625 315.371094 C 108.726562 315.363281 109.007812 315.621094 109.019531 315.957031 L 109.117188 318.535156 C 109.132812 318.871094 108.871094 319.15625 108.535156 319.167969 C 108.527344 319.167969 108.519531 319.167969 108.511719 319.167969 " fill-opacity="1" fill-rule="nonzero"/><path fill="#12354d" d="M 102.941406 314.003906 C 102.617188 314.003906 102.347656 313.746094 102.335938 313.417969 C 102.320312 313.082031 102.582031 312.800781 102.917969 312.785156 L 105.5 312.6875 C 105.84375 312.679688 106.117188 312.941406 106.128906 313.273438 C 106.144531 313.609375 105.878906 313.894531 105.546875 313.90625 L 102.964844 314.003906 C 102.957031 314.003906 102.949219 314.003906 102.941406 314.003906 " fill-opacity="1" fill-rule="nonzero"/><path fill="#12354d" d="M 111.09375 313.695312 C 110.769531 313.695312 110.5 313.4375 110.488281 313.109375 C 110.472656 312.773438 110.738281 312.492188 111.070312 312.480469 L 113.652344 312.382812 C 113.996094 312.363281 114.269531 312.628906 114.28125 312.96875 C 114.296875 313.304688 114.035156 313.585938 113.699219 313.597656 L 111.117188 313.695312 C 111.109375 313.695312 111.101562 313.695312 111.09375 313.695312 " fill-opacity="1" fill-rule="nonzero"/><path fill="#12354d" d="M 77.5 99.703125 C 77.171875 99.703125 76.902344 99.445312 76.890625 99.117188 L 76.792969 96.539062 C 76.78125 96.203125 77.042969 95.917969 77.378906 95.90625 C 77.714844 95.898438 77.996094 96.15625 78.011719 96.492188 L 78.105469 99.070312 C 78.121094 99.40625 77.859375 99.691406 77.523438 99.703125 C 77.515625 99.703125 77.507812 99.703125 77.5 99.703125 " fill-opacity="1" fill-rule="nonzero"/><path fill="#12354d" d="M 77.808594 107.855469 C 77.480469 107.855469 77.210938 107.597656 77.199219 107.269531 L 77.101562 104.691406 C 77.089844 104.355469 77.351562 104.070312 77.6875 104.058594 C 78.015625 104.050781 78.304688 104.308594 78.316406 104.644531 L 78.414062 107.226562 C 78.425781 107.558594 78.167969 107.84375 77.828125 107.855469 C 77.824219 107.855469 77.816406 107.855469 77.808594 107.855469 " fill-opacity="1" fill-rule="nonzero"/><path fill="#12354d" d="M 72.238281 102.691406 C 71.914062 102.691406 71.644531 102.433594 71.628906 102.105469 C 71.617188 101.769531 71.878906 101.488281 72.214844 101.476562 L 74.796875 101.378906 C 75.144531 101.363281 75.414062 101.625 75.425781 101.964844 C 75.4375 102.296875 75.175781 102.582031 74.84375 102.59375 L 72.261719 102.691406 C 72.253906 102.691406 72.246094 102.691406 72.238281 102.691406 " fill-opacity="1" fill-rule="nonzero"/><path fill="#12354d" d="M 80.390625 102.386719 C 80.066406 102.386719 79.796875 102.128906 79.78125 101.800781 C 79.769531 101.464844 80.03125 101.179688 80.367188 101.167969 L 82.949219 101.070312 C 83.285156 101.050781 83.566406 101.320312 83.578125 101.65625 C 83.589844 101.992188 83.328125 102.273438 82.992188 102.289062 L 80.414062 102.382812 C 80.40625 102.386719 80.398438 102.386719 80.390625 102.386719 " fill-opacity="1" fill-rule="nonzero"/><path fill="#ffffff" d="M 309.433594 122.402344 C 309.570312 128.710938 304.566406 133.929688 298.257812 134.066406 C 291.949219 134.203125 286.726562 129.199219 286.59375 122.890625 C 286.460938 116.582031 291.464844 111.359375 297.769531 111.222656 C 304.078125 111.089844 309.300781 116.09375 309.433594 122.402344 " fill-opacity="1" fill-rule="nonzero"/><path fill="#12354d" d="M 298.019531 111.828125 C 297.941406 111.828125 297.863281 111.828125 297.78125 111.832031 C 294.894531 111.894531 292.203125 113.078125 290.203125 115.160156 C 288.207031 117.25 287.140625 119.988281 287.203125 122.878906 C 287.261719 125.765625 288.449219 128.457031 290.53125 130.457031 C 292.617188 132.453125 295.375 133.527344 298.246094 133.457031 C 301.132812 133.394531 303.824219 132.210938 305.824219 130.128906 C 307.824219 128.042969 308.890625 125.304688 308.828125 122.414062 C 308.765625 119.527344 307.582031 116.832031 305.5 114.835938 C 303.46875 112.890625 300.820312 111.828125 298.019531 111.828125 Z M 298.007812 134.675781 C 294.890625 134.675781 291.949219 133.496094 289.691406 131.335938 C 287.371094 129.109375 286.054688 126.117188 285.984375 122.902344 C 285.917969 119.6875 287.105469 116.640625 289.328125 114.320312 C 291.550781 112 294.542969 110.683594 297.757812 110.617188 C 300.976562 110.550781 304.015625 111.734375 306.335938 113.957031 C 308.65625 116.179688 309.976562 119.171875 310.042969 122.386719 C 310.183594 129.019531 304.90625 134.53125 298.273438 134.675781 C 298.183594 134.675781 298.097656 134.675781 298.007812 134.675781 " fill-opacity="1" fill-rule="nonzero"/><path fill="#12354d" d="M 297.296875 128.257812 C 297.078125 128.257812 296.871094 128.136719 296.761719 127.9375 L 292.933594 120.8125 C 292.773438 120.515625 292.886719 120.144531 293.183594 119.988281 C 293.476562 119.828125 293.847656 119.9375 294.007812 120.234375 L 297.070312 125.9375 C 298.0625 121.941406 299.386719 118.933594 301.089844 116.777344 C 301.296875 116.511719 301.679688 116.46875 301.945312 116.675781 C 302.207031 116.882812 302.253906 117.265625 302.042969 117.53125 C 300.265625 119.78125 298.871094 123.230469 297.894531 127.777344 C 297.839844 128.027344 297.636719 128.214844 297.386719 128.25 C 297.355469 128.257812 297.328125 128.257812 297.296875 128.257812 " fill-opacity="1" fill-rule="nonzero"/><path fill="#ffffff" d="M 151.621094 105.550781 C 147.699219 105.550781 144.519531 102.367188 144.519531 98.449219 C 144.519531 94.527344 147.699219 91.34375 151.621094 91.34375 C 155.542969 91.34375 158.722656 94.527344 158.722656 98.449219 C 158.722656 102.367188 155.542969 105.550781 151.621094 105.550781 Z M 165.28125 95.441406 C 165.257812 95.273438 165.125 95.144531 164.957031 95.132812 L 162.539062 94.9375 C 162.398438 94.921875 162.28125 94.828125 162.230469 94.695312 C 162.074219 94.246094 161.890625 93.8125 161.679688 93.390625 C 161.621094 93.265625 161.632812 93.117188 161.71875 93.007812 L 163.253906 91.128906 C 163.359375 91 163.359375 90.8125 163.257812 90.683594 L 161.953125 89.007812 C 161.847656 88.875 161.664062 88.832031 161.515625 88.90625 L 159.320312 89.941406 C 159.195312 90.003906 159.042969 89.984375 158.9375 89.890625 C 158.578125 89.585938 158.203125 89.300781 157.808594 89.039062 C 157.691406 88.964844 157.628906 88.828125 157.648438 88.6875 L 158.039062 86.289062 C 158.066406 86.125 157.976562 85.960938 157.820312 85.898438 L 155.851562 85.105469 C 155.695312 85.042969 155.519531 85.097656 155.421875 85.234375 L 154.046875 87.226562 C 153.964844 87.34375 153.824219 87.398438 153.683594 87.375 C 153.226562 87.289062 152.757812 87.230469 152.28125 87.207031 C 152.140625 87.199219 152.015625 87.109375 151.964844 86.976562 L 151.105469 84.707031 C 151.046875 84.550781 150.886719 84.457031 150.722656 84.480469 L 148.617188 84.777344 C 148.453125 84.800781 148.324219 84.9375 148.3125 85.105469 L 148.117188 87.523438 C 148.101562 87.664062 148.007812 87.78125 147.875 87.828125 C 147.425781 87.988281 146.992188 88.171875 146.574219 88.382812 C 146.445312 88.445312 146.296875 88.429688 146.1875 88.339844 L 144.308594 86.808594 C 144.179688 86.703125 143.992188 86.699219 143.863281 86.804688 L 142.191406 88.113281 C 142.058594 88.214844 142.015625 88.398438 142.085938 88.550781 L 143.125 90.746094 C 143.1875 90.871094 143.164062 91.023438 143.074219 91.128906 C 142.765625 91.484375 142.480469 91.863281 142.222656 92.257812 C 142.144531 92.378906 142.007812 92.441406 141.867188 92.414062 L 139.472656 92.027344 C 139.308594 92 139.144531 92.09375 139.082031 92.246094 L 138.289062 94.21875 C 138.226562 94.375 138.28125 94.550781 138.417969 94.648438 L 140.410156 96.023438 C 140.527344 96.105469 140.582031 96.246094 140.558594 96.382812 C 140.472656 96.847656 140.414062 97.316406 140.386719 97.789062 C 140.378906 97.933594 140.292969 98.054688 140.160156 98.105469 L 137.890625 98.964844 C 137.734375 99.023438 137.640625 99.183594 137.664062 99.351562 L 137.960938 101.453125 C 137.984375 101.621094 138.121094 101.746094 138.289062 101.761719 L 140.703125 101.957031 C 140.847656 101.96875 140.964844 102.066406 141.011719 102.199219 C 141.167969 102.648438 141.351562 103.082031 141.5625 103.5 C 141.625 103.628906 141.609375 103.777344 141.523438 103.886719 L 139.988281 105.765625 C 139.882812 105.894531 139.878906 106.082031 139.984375 106.210938 L 141.292969 107.886719 C 141.394531 108.019531 141.578125 108.0625 141.730469 107.988281 L 143.921875 106.953125 C 144.050781 106.890625 144.199219 106.914062 144.308594 107.003906 C 144.664062 107.308594 145.042969 107.59375 145.4375 107.851562 C 145.554688 107.929688 145.617188 108.066406 145.59375 108.207031 L 145.203125 110.605469 C 145.175781 110.769531 145.269531 110.933594 145.421875 110.996094 L 147.390625 111.789062 C 147.546875 111.851562 147.726562 111.796875 147.820312 111.660156 L 149.199219 109.664062 C 149.277344 109.550781 149.417969 109.492188 149.558594 109.519531 C 150.019531 109.605469 150.488281 109.664062 150.964844 109.6875 C 151.101562 109.695312 151.230469 109.785156 151.277344 109.917969 L 152.136719 112.1875 C 152.199219 112.34375 152.355469 112.4375 152.523438 112.414062 L 154.625 112.117188 C 154.789062 112.09375 154.917969 111.957031 154.933594 111.789062 L 155.128906 109.371094 C 155.140625 109.230469 155.234375 109.113281 155.367188 109.066406 C 155.816406 108.90625 156.253906 108.722656 156.671875 108.511719 C 156.796875 108.449219 156.949219 108.464844 157.058594 108.554688 L 158.933594 110.085938 C 159.0625 110.191406 159.25 110.195312 159.378906 110.089844 L 161.054688 108.78125 C 161.183594 108.679688 161.226562 108.496094 161.15625 108.347656 L 160.117188 106.148438 C 160.058594 106.023438 160.078125 105.871094 160.171875 105.765625 C 160.476562 105.40625 160.761719 105.03125 161.019531 104.636719 C 161.097656 104.515625 161.234375 104.453125 161.375 104.480469 L 163.769531 104.867188 C 163.933594 104.894531 164.097656 104.800781 164.160156 104.648438 L 164.953125 102.675781 C 165.015625 102.523438 164.964844 102.34375 164.824219 102.246094 L 162.832031 100.871094 C 162.714844 100.789062 162.660156 100.648438 162.6875 100.507812 C 162.769531 100.050781 162.828125 99.578125 162.855469 99.101562 C 162.863281 98.964844 162.953125 98.839844 163.082031 98.789062 L 165.351562 97.929688 C 165.507812 97.871094 165.601562 97.710938 165.578125 97.542969 L 165.28125 95.441406 " fill-opacity="1" fill-rule="nonzero"/><path fill="#12354d" d="M 151.621094 91.953125 C 148.039062 91.953125 145.128906 94.867188 145.128906 98.449219 C 145.128906 102.027344 148.039062 104.941406 151.621094 104.941406 C 155.203125 104.941406 158.117188 102.027344 158.117188 98.449219 C 158.117188 94.867188 155.203125 91.953125 151.621094 91.953125 Z M 151.621094 106.15625 C 147.371094 106.15625 143.910156 102.699219 143.910156 98.449219 C 143.910156 94.195312 147.371094 90.738281 151.621094 90.738281 C 155.871094 90.738281 159.332031 94.195312 159.332031 98.449219 C 159.332031 102.699219 155.871094 106.15625 151.621094 106.15625 Z M 152.53125 86.761719 Z M 147.671875 87.257812 Z M 142.566406 88.589844 L 142.566406 88.59375 C 142.566406 88.59375 142.566406 88.589844 142.566406 88.589844 Z M 158.25 88.785156 Z M 141.964844 91.816406 Z M 162.222656 93.121094 Z M 163.460938 99.136719 C 163.460938 99.140625 163.460938 99.140625 163.460938 99.140625 C 163.460938 99.140625 163.460938 99.140625 163.460938 99.136719 Z M 145.101562 108.363281 Z M 150.710938 110.132812 Z M 147.320312 111.3125 C 147.320312 111.316406 147.320312 111.316406 147.316406 111.316406 Z M 149.492188 108.90625 C 149.550781 108.90625 149.609375 108.914062 149.667969 108.921875 C 150.101562 109.003906 150.546875 109.054688 150.996094 109.082031 C 151.378906 109.101562 151.710938 109.347656 151.847656 109.703125 L 152.632812 111.785156 L 154.339844 111.542969 L 154.523438 109.320312 C 154.550781 108.945312 154.808594 108.617188 155.164062 108.492188 C 155.59375 108.34375 156.003906 108.164062 156.398438 107.96875 C 156.738281 107.800781 157.148438 107.84375 157.441406 108.082031 L 159.164062 109.488281 L 160.519531 108.425781 L 159.566406 106.410156 C 159.40625 106.066406 159.460938 105.660156 159.707031 105.371094 C 159.996094 105.035156 160.265625 104.671875 160.511719 104.300781 C 160.71875 103.984375 161.097656 103.816406 161.472656 103.878906 L 163.667969 104.234375 L 164.3125 102.636719 L 162.484375 101.371094 C 162.175781 101.15625 162.019531 100.773438 162.085938 100.402344 C 162.167969 99.96875 162.222656 99.523438 162.246094 99.070312 C 162.269531 98.691406 162.511719 98.355469 162.867188 98.222656 L 164.949219 97.429688 L 164.707031 95.722656 L 162.488281 95.542969 C 162.113281 95.511719 161.785156 95.261719 161.65625 94.898438 C 161.507812 94.472656 161.335938 94.058594 161.136719 93.664062 C 160.96875 93.324219 161.011719 92.914062 161.25 92.625 L 162.65625 90.898438 L 161.59375 89.539062 L 159.582031 90.496094 C 159.238281 90.65625 158.832031 90.601562 158.539062 90.351562 C 158.203125 90.066406 157.84375 89.792969 157.472656 89.550781 C 157.152344 89.339844 156.988281 88.960938 157.046875 88.585938 L 157.40625 86.390625 L 155.808594 85.746094 L 154.546875 87.574219 C 154.328125 87.886719 153.949219 88.042969 153.574219 87.972656 C 153.140625 87.890625 152.695312 87.839844 152.246094 87.8125 C 151.863281 87.792969 151.53125 87.546875 151.394531 87.191406 L 150.605469 85.109375 L 148.902344 85.351562 L 148.71875 87.574219 C 148.6875 87.949219 148.4375 88.277344 148.074219 88.40625 C 147.652344 88.554688 147.238281 88.730469 146.84375 88.925781 C 146.503906 89.097656 146.09375 89.050781 145.800781 88.8125 L 144.078125 87.40625 L 142.722656 88.46875 L 143.675781 90.484375 C 143.835938 90.824219 143.78125 91.234375 143.535156 91.523438 C 143.246094 91.863281 142.976562 92.222656 142.730469 92.59375 C 142.519531 92.914062 142.140625 93.078125 141.769531 93.015625 L 139.574219 92.660156 L 138.925781 94.257812 L 140.757812 95.523438 C 141.066406 95.742188 141.222656 96.121094 141.152344 96.496094 C 141.074219 96.925781 141.019531 97.371094 140.996094 97.824219 C 140.972656 98.207031 140.730469 98.539062 140.375 98.675781 L 138.292969 99.464844 L 138.535156 101.171875 L 140.753906 101.351562 C 141.132812 101.382812 141.457031 101.636719 141.585938 102 C 141.734375 102.421875 141.910156 102.835938 142.105469 103.230469 C 142.277344 103.570312 142.230469 103.980469 141.992188 104.273438 L 140.585938 105.996094 L 141.648438 107.355469 L 143.660156 106.402344 C 144.003906 106.242188 144.410156 106.296875 144.703125 106.542969 C 145.039062 106.832031 145.398438 107.101562 145.769531 107.347656 C 146.089844 107.554688 146.253906 107.933594 146.191406 108.304688 L 145.835938 110.507812 L 147.433594 111.148438 L 148.699219 109.320312 C 148.878906 109.058594 149.175781 108.90625 149.492188 108.90625 Z M 152.46875 113.027344 C 152.070312 113.027344 151.714844 112.785156 151.566406 112.402344 L 150.765625 110.285156 C 150.375 110.257812 149.988281 110.210938 149.605469 110.144531 L 148.320312 112.007812 C 148.0625 112.378906 147.585938 112.523438 147.164062 112.355469 L 145.195312 111.558594 C 144.773438 111.390625 144.527344 110.957031 144.601562 110.507812 L 144.964844 108.269531 C 144.644531 108.050781 144.332031 107.816406 144.035156 107.570312 L 141.988281 108.539062 C 141.578125 108.734375 141.09375 108.621094 140.8125 108.261719 L 139.503906 106.589844 C 139.226562 106.230469 139.230469 105.734375 139.515625 105.382812 L 140.945312 103.628906 C 140.777344 103.285156 140.625 102.921875 140.492188 102.550781 L 138.238281 102.367188 C 137.785156 102.332031 137.421875 101.992188 137.359375 101.542969 L 137.0625 99.4375 C 136.996094 98.984375 137.25 98.558594 137.675781 98.398438 L 139.789062 97.59375 C 139.820312 97.203125 139.867188 96.8125 139.929688 96.433594 L 138.074219 95.148438 C 137.699219 94.886719 137.554688 94.414062 137.726562 93.992188 L 138.519531 92.019531 C 138.6875 91.597656 139.117188 91.351562 139.570312 91.425781 L 141.804688 91.789062 C 142.023438 91.46875 142.257812 91.15625 142.507812 90.859375 L 141.535156 88.808594 C 141.339844 88.398438 141.457031 87.914062 141.816406 87.632812 L 143.484375 86.324219 C 143.84375 86.042969 144.339844 86.050781 144.695312 86.335938 L 146.445312 87.765625 C 146.789062 87.601562 147.152344 87.445312 147.519531 87.3125 L 147.703125 85.054688 C 147.742188 84.601562 148.082031 84.238281 148.535156 84.175781 L 150.636719 83.878906 C 151.085938 83.816406 151.511719 84.066406 151.675781 84.492188 L 152.476562 86.609375 C 152.867188 86.636719 153.253906 86.683594 153.636719 86.75 L 154.921875 84.886719 C 155.179688 84.515625 155.65625 84.371094 156.078125 84.542969 L 158.046875 85.335938 C 158.46875 85.507812 158.714844 85.9375 158.640625 86.386719 L 158.277344 88.625 C 158.59375 88.839844 158.910156 89.078125 159.210938 89.324219 L 161.253906 88.355469 C 161.664062 88.160156 162.148438 88.277344 162.429688 88.632812 L 163.738281 90.304688 C 164.019531 90.664062 164.011719 91.160156 163.726562 91.511719 L 162.296875 93.265625 C 162.460938 93.613281 162.617188 93.976562 162.753906 94.34375 L 165.003906 94.527344 C 165.457031 94.5625 165.820312 94.902344 165.882812 95.355469 L 166.183594 97.457031 C 166.246094 97.910156 165.992188 98.335938 165.566406 98.496094 L 163.453125 99.300781 C 163.421875 99.691406 163.378906 100.085938 163.3125 100.464844 L 165.171875 101.75 C 165.542969 102.007812 165.6875 102.484375 165.519531 102.902344 L 164.722656 104.875 C 164.554688 105.296875 164.121094 105.542969 163.671875 105.46875 L 161.4375 105.105469 C 161.21875 105.425781 160.984375 105.738281 160.734375 106.039062 L 161.703125 108.085938 C 161.898438 108.496094 161.785156 108.980469 161.429688 109.261719 L 159.753906 110.570312 C 159.398438 110.847656 158.902344 110.847656 158.546875 110.558594 L 156.796875 109.128906 C 156.453125 109.296875 156.089844 109.449219 155.722656 109.585938 L 155.539062 111.839844 C 155.5 112.292969 155.160156 112.65625 154.710938 112.71875 L 152.605469 113.015625 C 152.5625 113.023438 152.511719 113.027344 152.46875 113.027344 " fill-opacity="1" fill-rule="nonzero"/></svg>